<svg width="2512" height="2256" viewBox="0 0 2512 2256" fill="none" xmlns="http://www.w3.org/2000/svg">
<rect width="2512" height="2256" fill="#F3FBFF"/>
<path d="M1630.95 591.602C1643.37 591.602 1653.43 581.535 1653.43 569.119C1653.43 556.703 1643.37 546.636 1630.95 546.636C1618.54 546.636 1608.47 556.703 1608.47 569.119C1608.47 581.535 1618.54 591.602 1630.95 591.602Z" fill="#FD4060"/>
<path d="M1630.95 723.705C1643.37 723.705 1653.43 713.637 1653.43 701.221C1653.43 688.805 1643.37 678.738 1630.95 678.738C1618.54 678.738 1608.47 688.805 1608.47 701.221C1608.47 713.637 1618.54 723.705 1630.95 723.705Z" fill="#FD4060"/>
<path d="M1630.95 855.863C1643.37 855.863 1653.43 845.796 1653.43 833.38C1653.43 820.964 1643.37 810.896 1630.95 810.896C1618.54 810.896 1608.47 820.964 1608.47 833.38C1608.47 845.796 1618.54 855.863 1630.95 855.863Z" fill="#FD4060"/>
<path d="M878.076 1704.52C878.076 1692.1 868.009 1682.03 855.592 1682.03C843.176 1682.03 833.109 1692.1 833.109 1704.52C833.109 1716.93 843.176 1727 855.592 1727C868.009 1727 878.076 1716.93 878.076 1704.52Z" fill="#07283E"/>
<path d="M1010.26 1704.52C1010.26 1692.1 1000.2 1682.03 987.78 1682.03C975.364 1682.03 965.297 1692.1 965.297 1704.52C965.297 1716.93 975.364 1727 987.78 1727C1000.2 1727 1010.26 1716.93 1010.26 1704.52Z" fill="#07283E"/>
<path d="M1142.34 1704.52C1142.34 1692.1 1132.27 1682.03 1119.86 1682.03C1107.44 1682.03 1097.38 1692.1 1097.38 1704.52C1097.38 1716.93 1107.44 1727 1119.86 1727C1132.27 1727 1142.34 1716.93 1142.34 1704.52Z" fill="#07283E"/>
<path d="M2107.44 1114.47H1769.92C1759.75 1114.47 1751.52 1122.71 1751.52 1132.87V1242.38C1751.52 1252.54 1759.75 1260.78 1769.92 1260.78H2107.44C2117.6 1260.78 2125.84 1252.54 2125.84 1242.38V1132.87C2125.84 1122.71 2117.6 1114.47 2107.44 1114.47Z" fill="#07283E"/>
<path d="M2096.97 1260.73H1780.36V1281.98H2096.97V1260.73Z" fill="#FD4060"/>
<path d="M1785.96 1136.85H2091.33C2095.97 1136.85 2099.77 1140.65 2099.77 1145.29V1186.73C2099.77 1191.38 2095.97 1195.18 2091.33 1195.18H1785.96C1781.32 1195.18 1777.52 1191.38 1777.52 1186.73V1145.29C1777.52 1140.65 1781.32 1136.85 1785.96 1136.85Z" fill="#F3FBFF"/>
<path d="M2099.77 1211.34H1996.86V1228.29H2099.77V1211.34Z" fill="#EDEDED"/>
<path d="M1939.25 1228.34H1974.09V1211.4H1939.25V1228.34Z" fill="#FD4060"/>
<path d="M2107.44 1281.98H1769.92C1759.75 1281.98 1751.52 1290.22 1751.52 1300.38V1409.89C1751.52 1420.05 1759.75 1428.29 1769.92 1428.29H2107.44C2117.6 1428.29 2125.84 1420.05 2125.84 1409.89V1300.38C2125.84 1290.22 2117.6 1281.98 2107.44 1281.98Z" fill="#07283E"/>
<path d="M2096.97 1428.29H1780.36V1449.54H2096.97V1428.29Z" fill="#FD4060"/>
<path d="M2091.27 1304.41H1785.96C1781.3 1304.41 1777.52 1308.19 1777.52 1312.85V1354.24C1777.52 1358.9 1781.3 1362.68 1785.96 1362.68H2091.27C2095.94 1362.68 2099.72 1358.9 2099.72 1354.24V1312.85C2099.72 1308.19 2095.94 1304.41 2091.27 1304.41Z" fill="#F3FBFF"/>
<path d="M2099.77 1378.9H1996.86V1395.91H2099.77V1378.9Z" fill="#EDEDED"/>
<path d="M1939.25 1395.85H1974.09V1378.85H1939.25V1395.85Z" fill="#FD4060"/>
<path d="M2107.44 1449.48H1769.92C1759.75 1449.48 1751.52 1457.72 1751.52 1467.88V1577.39C1751.52 1587.55 1759.75 1595.79 1769.92 1595.79H2107.44C2117.6 1595.79 2125.84 1587.55 2125.84 1577.39V1467.88C2125.84 1457.72 2117.6 1449.48 2107.44 1449.48Z" fill="#07283E"/>
<path d="M2096.97 1595.79H1780.36V1617.04H2096.97V1595.79Z" fill="#FD4060"/>
<path d="M1785.96 1471.91H2091.33C2095.97 1471.91 2099.77 1475.72 2099.77 1480.36V1521.8C2099.77 1526.44 2095.97 1530.25 2091.33 1530.25H1785.96C1781.32 1530.25 1777.52 1526.44 1777.52 1521.8V1480.36C1777.52 1475.72 1781.32 1471.91 1785.96 1471.91Z" fill="#F3FBFF"/>
<path d="M2099.77 1546.41H1996.86V1563.41H2099.77V1546.41Z" fill="#EDEDED"/>
<path d="M1939.25 1563.35H1974.09V1546.35H1939.25V1563.35Z" fill="#FD4060"/>
<path d="M805.353 930.08H1532.7C1557.25 930.08 1577.16 949.99 1577.16 974.543V1475.21H760.891V974.543C760.891 949.99 780.801 930.08 805.353 930.08Z" fill="#07283E"/>
<path d="M1546.61 988.806V1444.62H791.469V988.806C791.469 973.258 804.053 960.674 819.601 960.674H1518.42C1533.97 960.674 1546.61 973.258 1546.61 988.806Z" fill="#F3FBFF"/>
<path d="M1577.14 1475.21H760.87L639.953 1551.44H1698.06L1577.14 1475.21Z" fill="#9BC5DA"/>
<path d="M639.962 1551.44H1698.12V1558.1C1698.12 1597.53 1666.13 1629.52 1626.7 1629.52H711.327C671.897 1629.52 639.906 1597.53 639.906 1558.1V1551.44H639.962Z" fill="#D4F1FF"/>
<path d="M1091.73 1590.42H1246.2C1252.02 1590.42 1257.55 1587.24 1261.08 1581.87L1281.1 1551.44H1056.83L1076.85 1581.87C1080.37 1587.29 1085.91 1590.42 1091.73 1590.42Z" fill="#FD4060"/>
<path d="M1450.85 1041.38H905.609V1444.62H1450.85V1041.38Z" fill="#07283E"/>
<path d="M1201.12 1174.71H932.438V1417.89H1201.12V1174.71Z" fill="#EDEDED"/>
<path d="M1155.01 1226.84H978.443C973.241 1226.84 969.047 1222.64 969.047 1217.44C969.047 1212.24 973.241 1208.04 978.443 1208.04H1155.01C1160.21 1208.04 1164.4 1212.24 1164.4 1217.44C1164.4 1222.64 1160.21 1226.84 1155.01 1226.84Z" fill="#FD4060"/>
<path d="M1155.01 1279.41H978.443C973.241 1279.41 969.047 1275.21 969.047 1270.01C969.047 1264.81 973.241 1260.56 978.443 1260.56H1155.01C1160.21 1260.56 1164.4 1264.76 1164.4 1270.01C1164.4 1275.21 1160.21 1279.41 1155.01 1279.41Z" fill="#FD4060"/>
<path d="M1155.01 1332.04H978.443C973.241 1332.04 969.047 1327.84 969.047 1322.64C969.047 1317.44 973.241 1313.25 978.443 1313.25H1155.01C1160.21 1313.25 1164.4 1317.44 1164.4 1322.64C1164.4 1327.84 1160.21 1332.04 1155.01 1332.04Z" fill="#FD4060"/>
<path d="M1155.01 1384.61H978.443C973.241 1384.61 969.047 1380.41 969.047 1375.21C969.047 1370.01 973.241 1365.82 978.443 1365.82H1155.01C1160.21 1365.82 1164.4 1370.01 1164.4 1375.21C1164.4 1380.41 1160.21 1384.61 1155.01 1384.61Z" fill="#FD4060"/>
<path d="M1430.37 1062.18H932.438V1149.1H1430.37V1062.18Z" fill="white"/>
<path d="M1450.85 1003.35H905.609V1041.38H1450.85V1003.35Z" fill="#D2D2D2"/>
<path d="M947.332 1022.36C947.332 1016.71 942.745 1012.07 937.041 1012.07C931.336 1012.07 926.75 1016.66 926.75 1022.36C926.75 1028.07 931.336 1032.65 937.041 1032.65C942.745 1032.65 947.332 1028.07 947.332 1022.36Z" fill="#ED7630"/>
<path d="M987.707 1022.36C987.707 1016.71 983.12 1012.07 977.416 1012.07C971.711 1012.07 967.125 1016.66 967.125 1022.36C967.125 1028.07 971.711 1032.65 977.416 1032.65C983.12 1032.65 987.707 1028.07 987.707 1022.36Z" fill="#F6C543"/>
<path d="M1028.08 1022.36C1028.08 1016.71 1023.5 1012.07 1017.79 1012.07C1012.09 1012.07 1007.5 1016.66 1007.5 1022.36C1007.5 1028.07 1012.09 1032.65 1017.79 1032.65C1023.5 1032.65 1028.08 1028.07 1028.08 1022.36Z" fill="#32EA9F"/>
<path d="M1430.4 1174.71H1230.34V1417.89H1430.4V1174.71Z" fill="#EDEDED"/>
<path d="M1277.55 1232.82C1289.85 1215.37 1296.56 1194.79 1300.76 1174.71H1289.4C1285.38 1193.06 1279.22 1210.95 1268.37 1226.39C1259.65 1238.81 1246 1250.33 1230.34 1255.75V1267.44C1249.92 1261.79 1266.86 1247.87 1277.55 1232.82ZM1386.66 1388.92C1381.29 1397.03 1379.28 1406.31 1377.32 1415.26C1377.16 1416.15 1376.93 1416.99 1376.76 1417.89H1388.23C1388.23 1417.89 1388.23 1417.72 1388.23 1417.61C1390.02 1409.33 1391.75 1401.44 1395.95 1395.07C1402.49 1385.17 1414.63 1379.58 1425.48 1375.16C1427.1 1374.49 1428.66 1373.87 1430.34 1373.26V1361.34C1427.21 1362.41 1424.19 1363.58 1421.23 1364.81C1408.81 1369.85 1394.88 1376.33 1386.61 1388.92H1386.66ZM1280.01 1297.25C1301.04 1284.33 1327.71 1266.21 1347.51 1240.6C1363.17 1220.35 1372.57 1197.08 1374.41 1174.71H1363.12C1361.27 1194.68 1352.83 1215.48 1338.68 1233.77C1319.94 1257.93 1294.38 1275.33 1274.14 1287.74C1270.95 1289.7 1267.65 1291.66 1264.4 1293.67C1252.88 1300.61 1241.08 1307.65 1230.34 1316.1V1330.75C1242.26 1320.01 1256.41 1311.51 1270.16 1303.23C1273.46 1301.22 1276.76 1299.26 1280.01 1297.25ZM1365.97 1296.36C1356.46 1302 1346.56 1307.43 1337 1312.69C1316.08 1324.26 1294.38 1336.18 1275.09 1351.28C1255.23 1366.77 1240.02 1384.5 1230.34 1403.18V1417.89H1235.77C1246.62 1390.99 1268.1 1370.91 1281.97 1360.11C1300.59 1345.57 1321.84 1333.83 1342.42 1322.47C1352.04 1317.16 1362.05 1311.68 1371.67 1305.92C1389.29 1295.46 1412.17 1280.36 1430.4 1259.44V1241.55C1412.33 1266.77 1385.66 1284.61 1365.97 1296.36ZM1338.51 1374.82C1325.42 1388.13 1318.21 1403.35 1317.76 1417.89H1328.95C1329.5 1406.31 1335.71 1393.67 1346.51 1382.65C1357.8 1371.08 1371.79 1362.57 1385.21 1355.08C1399.86 1346.91 1414.96 1339.36 1430.4 1332.65V1320.4C1413.12 1327.79 1396.11 1336.18 1379.78 1345.29C1365.63 1353.18 1350.81 1362.24 1338.51 1374.82Z" fill="#FD4060"/>
<path d="M1390.81 922.353H1210.16L1172.58 1017.49L1132.37 922.353H951.717C890.7 922.353 841.203 872.857 841.203 811.839V768.83C841.203 707.813 890.7 658.316 951.717 658.316H1390.75C1451.77 658.316 1501.27 707.813 1501.27 768.83V811.839C1501.27 872.857 1451.77 922.353 1390.75 922.353H1390.81Z" fill="#07283E"/>
<path d="M1091.36 839.972H1022.68L1009.93 871.515H963.062L1034.76 709.1H1080.01L1151.93 871.515H1104.17L1091.42 839.972H1091.36ZM1077.94 806.135L1057.08 754.178L1036.22 806.135H1077.99H1077.94Z" fill="#F3FBFF"/>
<path d="M1311.29 769.222C1311.29 806.135 1283.43 829.065 1239.14 829.065H1210.84V871.515H1164.92V709.1H1239.14C1283.43 709.1 1311.29 732.086 1311.29 769.166V769.222ZM1264.87 769.222C1264.87 754.122 1255.36 745.341 1236.34 745.341H1210.84V792.88H1236.34C1255.36 792.88 1264.87 784.043 1264.87 769.222Z" fill="#F3FBFF"/>
<path d="M1333.55 709.154H1379.46V871.57H1333.55V709.154Z" fill="#F3FBFF"/>
<circle cx="1946.22" cy="1721.13" r="5.59282" fill="#07283E"/>
<path d="M1946.2 1657V1831.37C1946.2 1968.79 1834.8 2080.25 1697.38 2080.25C1559.96 2080.25 1448.5 1968.85 1448.5 1831.37V1677.39" stroke="#07283E" stroke-width="11.1856" stroke-linecap="round" stroke-linejoin="round"/>
<circle cx="1448.45" cy="1666.32" r="5.59282" fill="#07283E"/>
<path d="M1925.2 1661.03C1925.2 1649.4 1934.6 1640 1946.23 1640C1957.87 1640 1967.26 1649.4 1967.26 1661.03C1967.26 1672.66 1957.87 1682.06 1946.23 1682.06C1934.6 1682.06 1925.2 1672.66 1925.2 1661.03Z" fill="#FD4060"/>
<circle cx="521.062" cy="595.07" r="5.59282" fill="#07283E"/>
<path d="M521.062 572.866V424.824C521.062 287.409 632.471 176 769.887 176C907.302 176 1018.77 287.409 1018.77 424.88V638.861" stroke="#07283E" stroke-width="11.1856" stroke-linecap="round" stroke-linejoin="round"/>
<circle cx="1018.76" cy="649.937" r="5.59282" fill="#07283E"/>
<path d="M542.089 594.064C542.089 605.697 532.693 615.093 521.06 615.093C509.427 615.093 500.031 605.697 500.031 594.064C500.031 582.431 509.427 573.035 521.06 573.035C532.693 573.035 542.089 582.431 542.089 594.064Z" fill="#FD4060"/>
<path d="M2223.82 994.622H2208.89C2210.85 986.68 2212.02 978.291 2212.02 969.678C2212.02 915.54 2168.12 871.636 2113.98 871.636C2108.16 871.636 2102.57 872.083 2097.09 873.146V871.636C2097.09 793.113 2033.5 729.522 1954.98 729.522C1880.65 729.522 1819.74 786.457 1813.48 859.164C1750.22 866.379 1701.23 919.958 1701.23 985.058C1701.23 988.302 1701.34 991.49 1701.57 994.622H1689.43C1680.48 994.622 1673.27 1001.84 1673.27 1010.79C1673.27 1019.73 1680.48 1026.95 1689.43 1026.95H2223.77C2232.72 1026.95 2239.93 1019.73 2239.93 1010.79C2239.93 1001.84 2232.72 994.622 2223.77 994.622H2223.82Z" fill="#07283E"/>
<path d="M640.958 657.373H324.852C295.663 657.373 272 681.036 272 710.225V1313.41C272 1342.6 295.663 1366.26 324.852 1366.26H640.958C670.147 1366.26 693.81 1342.6 693.81 1313.41V710.225C693.81 681.036 670.147 657.373 640.958 657.373Z" fill="#07283E"/>
<path d="M665.859 1313.41V710.225C665.859 696.48 654.717 685.337 640.971 685.337H324.865C311.12 685.337 299.977 696.48 299.977 710.225L299.977 1313.41C299.977 1327.16 311.12 1338.3 324.865 1338.3H640.971C654.717 1338.3 665.859 1327.16 665.859 1313.41Z" fill="#F3FBFF"/>
<path d="M540.904 1150.34C617.415 1118.34 653.494 1030.37 621.489 953.859C589.484 877.348 501.514 841.269 425.004 873.274C348.493 905.279 312.414 993.249 344.419 1069.76C376.424 1146.27 464.394 1182.35 540.904 1150.34Z" fill="#FD4060"/>
<path d="M521.806 1128.18C586.04 1106.68 620.679 1037.17 599.174 972.937C577.669 908.703 508.164 874.064 443.931 895.569C379.697 917.074 345.058 986.579 366.563 1050.81C388.068 1115.05 457.572 1149.68 521.806 1128.18Z" fill="#EDEDED"/>
<path d="M454.342 1081.03H454.23C450.706 1081.03 447.351 1079.3 445.281 1076.39L414.353 1033.6C410.718 1028.57 411.836 1021.58 416.87 1018C421.848 1014.36 428.839 1015.48 432.474 1020.52L454.565 1051.05L533.536 947.082C537.283 942.161 544.274 941.21 549.196 944.957C554.118 948.704 555.068 955.695 551.321 960.617L463.234 1076.61C461.109 1079.41 457.809 1081.03 454.342 1081.03Z" fill="#FD4060"/>
<path d="M408.414 1447.41C408.414 1439.08 401.647 1432.31 393.314 1432.31H314.679C306.345 1432.31 299.578 1439.08 299.578 1447.41V1688.24H617.977V1485.45C617.977 1472.81 607.742 1462.51 595.047 1462.51H423.515C415.182 1462.51 408.414 1455.75 408.414 1447.41Z" fill="#FD4060"/>
<path d="M299.578 1688.24L326.256 1507.54C327.934 1496.3 337.553 1487.96 348.907 1487.96H621.501C635.539 1487.96 646.277 1500.43 644.151 1514.31L617.921 1688.24H299.578Z" fill="#07283E"/>
<path d="M1946.91 492.944C1866.6 492.944 1801.5 558.045 1801.5 638.358C1801.5 718.67 1866.6 783.771 1946.91 783.771C2027.23 783.771 2092.33 718.67 2092.33 638.358C2092.33 558.045 2027.23 492.944 1946.91 492.944ZM1909.5 506.759C1902.9 513.75 1896.8 522.642 1891.38 533.324C1888.02 539.924 1885.06 547.083 1882.43 554.633C1881.25 553.962 1880.08 553.347 1878.9 552.62C1878.01 552.116 1877.17 551.557 1876.28 551.054C1869.17 546.635 1862.46 541.602 1856.25 536.009C1871.69 522.307 1889.81 512.407 1909.44 506.815L1909.5 506.759ZM1849.04 542.832C1856.03 549.208 1863.52 554.857 1871.47 559.779C1872.42 560.394 1873.31 560.897 1874.21 561.456C1875.88 562.463 1877.56 563.414 1879.3 564.309C1873.14 585.226 1869.73 608.38 1869.28 633.38H1810.11C1811.34 599.096 1825.05 567.329 1848.98 542.832H1849.04ZM1810.17 643.559H1869.28C1869.73 668.559 1873.2 691.545 1879.3 712.295C1877.56 713.189 1875.88 714.252 1874.21 715.259C1873.31 715.762 1872.42 716.377 1871.47 716.993C1863.47 721.914 1855.92 727.451 1848.93 733.883C1825.94 710.337 1811.57 678.794 1810.22 643.615L1810.17 643.559ZM1856.14 740.93C1862.41 735.281 1869.12 730.192 1876.28 725.717C1877.17 725.158 1878.01 724.655 1878.9 724.151C1880.08 723.48 1881.25 722.809 1882.43 722.138C1885.06 729.688 1888.02 736.791 1891.38 743.447C1896.8 754.129 1902.9 763.021 1909.5 770.012C1889.31 764.308 1871.19 754.241 1856.14 740.93ZM1941.54 775.102C1940.59 775.102 1940.82 775.102 1940.48 775.102C1936.96 774.934 1933.43 774.654 1929.97 774.207C1918.22 768.167 1907.32 755.863 1898.42 738.077C1895.35 731.925 1892.55 725.27 1890.15 718.279C1899.77 713.693 1909.89 710.225 1920.35 707.988C1921.3 707.764 1922.3 707.597 1923.31 707.373C1929.35 706.198 1935.11 705.471 1941.6 705.08V775.158L1941.54 775.102ZM1941.54 695.125C1934.11 695.516 1928.18 696.299 1921.69 697.53C1920.74 697.697 1919.73 697.921 1918.56 698.145C1907.65 700.438 1897.14 703.793 1887.07 708.436C1881.42 688.861 1878.18 666.713 1877.73 643.559H1941.54V695.125ZM1941.54 633.38H1877.67C1878.07 610.226 1881.31 587.854 1887.01 568.168C1897.08 572.81 1907.6 576.333 1918.5 578.626C1919.68 578.85 1920.68 579.074 1921.63 579.241C1928.18 580.472 1934.11 581.311 1941.54 581.646V633.38ZM1941.54 571.747C1935.06 571.356 1929.24 570.629 1923.26 569.454C1922.19 569.23 1921.24 569.063 1920.29 568.839C1909.83 566.602 1899.77 563.134 1890.09 558.548C1892.55 551.557 1895.29 544.902 1898.37 538.75C1907.32 520.964 1918.17 508.66 1929.91 502.62C1933.38 502.173 1936.96 501.893 1940.48 501.725C1940.82 501.725 1940.59 501.725 1941.54 501.725V571.803V571.747ZM2083.66 633.38H2024.49C2024.09 610.226 2020.91 587.239 2015.26 567.049C2017.05 566.21 2018.78 565.259 2020.57 564.365C2021.58 563.805 2022.47 563.302 2023.37 562.799C2031.92 557.989 2040.03 552.284 2047.53 545.796C2069.73 569.902 2082.43 600.942 2083.6 633.38H2083.66ZM2040.54 538.694C2033.83 544.398 2026.55 549.488 2018.89 553.85C2017.94 554.409 2017.05 554.857 2016.21 555.304C2014.92 555.975 2013.64 556.647 2012.35 557.318C2009.5 548.761 2006.2 540.707 2002.45 533.269C1997.02 522.586 1990.93 513.694 1984.33 506.703C2005.3 512.631 2024.43 523.537 2040.54 538.694ZM1951.72 501.669C1951.72 501.669 1952.73 501.669 1953.18 501.669C1956.7 501.837 1960.28 502.117 1963.8 502.564C1975.55 508.604 1986.51 520.908 1995.46 538.694C1998.93 545.573 2001.95 553.011 2004.58 560.897C1994.73 565.092 1984.44 568.112 1973.81 569.957C1972.86 570.125 1971.75 570.293 1970.68 570.461C1964.53 571.412 1958.27 571.859 1951.78 571.971V501.669H1951.72ZM1951.72 581.87C1958.21 581.758 1965.37 581.255 1971.91 580.304C1973.14 580.136 1974.21 579.969 1975.1 579.801C1986.17 577.955 1997.02 574.823 2007.37 570.573C2012.68 589.7 2015.7 611.176 2016.1 633.436H1951.72V581.926V581.87ZM1951.72 643.559H2016.1C2015.65 665.818 2012.68 687.071 2007.43 706.031C1997.08 701.724 1986.34 698.76 1975.27 696.858C1974.37 696.691 1973.14 696.579 1971.97 696.411C1965.37 695.46 1958.21 694.957 1951.72 694.901V643.559ZM1963.75 774.151C1960.28 774.599 1956.64 774.878 1953.12 775.046C1952.73 775.046 1951.72 775.046 1951.72 775.046V704.744C1958.21 704.856 1964.47 705.304 1970.63 706.254C1971.69 706.422 1972.75 706.59 1973.7 706.758C1984.27 708.603 1994.62 711.623 2004.52 715.818C2001.89 723.704 1998.87 731.142 1995.46 738.022C1986.51 755.807 1975.6 768.111 1963.8 774.151H1963.75ZM1984.27 770.012C1990.87 763.021 1996.97 754.129 2002.39 743.447C2006.14 736.008 2009.44 727.954 2012.29 719.397C2013.58 720.069 2014.87 720.684 2016.15 721.411C2016.99 721.858 2017.83 722.362 2018.84 722.865C2026.55 727.227 2033.88 732.373 2040.65 738.189C2024.99 752.898 2005.81 763.972 1984.27 770.012ZM2047.7 730.919C2040.15 724.431 2031.98 718.838 2023.37 714.028C2022.47 713.525 2021.58 713.022 2020.57 712.462C2018.84 711.512 2017.05 710.449 2015.26 709.554C2020.85 689.476 2024.04 667.664 2024.43 643.559H2083.55C2082.2 677.843 2068.95 707.708 2047.64 730.919H2047.7Z" fill="#FD4060"/>
<path d="M541.643 1817.6C541.531 1816.65 541.419 1815.7 541.251 1814.81C541.084 1813.86 540.916 1812.9 540.748 1812.01L540.468 1810.61C540.245 1809.66 540.021 1808.77 539.741 1807.82C537.169 1798.75 532.582 1790.65 526.151 1783.71C520.949 1778.12 514.853 1773.7 507.974 1770.46C507.359 1770.18 506.744 1769.9 506.128 1769.62C505.569 1769.39 505.01 1769.11 504.395 1768.89C502.605 1768.22 500.815 1767.6 498.97 1767.04C498.075 1766.76 497.124 1766.54 496.229 1766.32C495.278 1766.09 494.384 1765.93 493.433 1765.76L492.035 1765.53C489.35 1765.09 486.61 1764.86 483.869 1764.81C481.129 1764.81 478.388 1764.92 475.704 1765.25C474.641 1765.37 473.522 1765.53 472.46 1765.76C469.216 1766.32 465.972 1767.21 462.896 1768.33C455.346 1771.01 448.522 1775.21 442.594 1780.69C430.402 1792.04 423.579 1808.04 423.746 1824.71C423.746 1826.1 423.858 1827.56 423.97 1828.96L424.082 1830.35C424.194 1831.31 424.306 1832.26 424.473 1833.15C424.921 1836 425.592 1838.8 426.431 1841.48C426.711 1842.38 427.046 1843.33 427.326 1844.22C430.01 1851.66 434.149 1858.37 439.63 1864.25C446.118 1871.18 453.836 1876.33 462.728 1879.57C463.623 1879.91 464.518 1880.19 465.469 1880.47C466.811 1880.91 468.209 1881.25 469.607 1881.58C470.558 1881.81 471.453 1881.98 472.404 1882.14L473.802 1882.37C474.753 1882.54 475.704 1882.65 476.598 1882.76C477.997 1882.93 479.395 1883.04 480.849 1883.04C481.576 1883.04 482.247 1883.04 482.974 1883.04C483.198 1883.04 483.422 1883.04 483.701 1883.04C486.05 1883.04 488.455 1882.82 490.748 1882.54C491.699 1882.42 492.65 1882.26 493.545 1882.09C494.495 1881.92 495.39 1881.75 496.341 1881.53C497.739 1881.19 499.137 1880.86 500.48 1880.41C508.981 1877.78 516.643 1873.31 523.242 1867.21C526.878 1863.8 530.122 1859.94 532.806 1855.8C533.31 1854.96 533.813 1854.12 534.316 1853.28C535.043 1852 535.714 1850.71 536.33 1849.43C536.721 1848.59 537.113 1847.69 537.504 1846.8C537.728 1846.18 538.008 1845.62 538.231 1845.01C538.679 1843.83 539.126 1842.6 539.462 1841.37C539.741 1840.48 540.021 1839.53 540.245 1838.63C540.412 1837.9 540.58 1837.18 540.748 1836.39C540.916 1835.72 541.028 1835.11 541.14 1834.44C541.195 1833.93 541.307 1833.49 541.363 1833.04C541.531 1832.09 541.643 1831.14 541.755 1830.24L541.867 1828.84C541.923 1827.89 541.978 1826.94 542.034 1825.99V1824.59C542.034 1822.69 542.034 1820.79 541.867 1818.89L541.755 1817.49L541.643 1817.6ZM534.82 1825.88C534.82 1826.72 534.764 1827.56 534.652 1828.34L534.54 1829.63C534.428 1830.47 534.316 1831.25 534.204 1832.14C534.148 1832.54 534.093 1832.93 533.981 1833.37C533.869 1833.93 533.757 1834.55 533.645 1835.11C533.533 1835.78 533.366 1836.39 533.198 1837.07C532.974 1837.85 532.75 1838.69 532.527 1839.47C532.191 1840.53 531.855 1841.6 531.408 1842.66C531.184 1843.16 531.017 1843.72 530.793 1844.22C530.457 1845.01 530.122 1845.79 529.73 1846.52C529.171 1847.64 528.612 1848.81 527.94 1849.93C527.493 1850.66 527.102 1851.38 526.598 1852.11C524.249 1855.8 521.397 1859.16 518.209 1862.18C512.448 1867.55 505.681 1871.46 498.187 1873.81C496.956 1874.2 495.782 1874.54 494.551 1874.82C493.712 1874.99 492.929 1875.15 492.091 1875.32C491.252 1875.49 490.469 1875.6 489.63 1875.71C487.56 1875.99 485.491 1876.16 483.422 1876.16C482.583 1876.16 481.744 1876.16 480.905 1876.16C479.674 1876.16 478.388 1876.05 477.158 1875.88C476.319 1875.77 475.48 1875.66 474.697 1875.54L473.466 1875.32C472.628 1875.15 471.845 1874.99 471.006 1874.82C469.775 1874.54 468.545 1874.2 467.37 1873.81C466.587 1873.59 465.748 1873.31 464.965 1873.03C457.191 1870.23 450.368 1865.7 444.663 1859.55C439.854 1854.4 436.218 1848.48 433.869 1841.93C433.59 1841.15 433.31 1840.31 433.086 1839.53C432.359 1837.12 431.744 1834.66 431.408 1832.2C431.297 1831.36 431.185 1830.52 431.073 1829.68L430.961 1828.45C430.849 1827.22 430.793 1825.94 430.793 1824.71C430.625 1810.05 436.666 1795.96 447.348 1785.95C452.549 1781.08 458.534 1777.45 465.189 1775.04C467.93 1774.03 470.782 1773.31 473.634 1772.8C474.585 1772.64 475.536 1772.47 476.487 1772.36C478.556 1772.08 480.681 1771.97 482.806 1771.97C483.086 1771.97 483.422 1771.97 483.701 1771.97C486.106 1771.97 488.511 1772.19 490.916 1772.58L492.146 1772.8C492.985 1772.97 493.768 1773.14 494.607 1773.31C495.446 1773.48 496.229 1773.7 497.012 1773.92C498.634 1774.37 500.256 1774.93 501.766 1775.54C502.269 1775.77 502.773 1775.94 503.332 1776.16C503.891 1776.38 504.395 1776.66 504.954 1776.89C510.994 1779.74 516.363 1783.65 520.949 1788.58C526.654 1794.67 530.681 1801.83 532.918 1809.83C533.142 1810.61 533.365 1811.45 533.533 1812.23L533.813 1813.46C533.981 1814.3 534.148 1815.09 534.26 1815.92C534.372 1816.76 534.484 1817.6 534.596 1818.39L534.708 1819.62C534.82 1821.24 534.931 1822.92 534.876 1824.65V1825.88H534.82ZM636.721 1800.6C634.372 1798.08 631.24 1796.69 627.828 1796.52L607.638 1795.85C605.345 1784.88 602.269 1774.93 595.949 1763.74L610.714 1749.99C615.86 1745.18 616.195 1736.51 611.441 1731.36L584.204 1702.11C581.799 1699.48 578.555 1698.42 575.088 1698.98C572.403 1699.43 569.663 1700.94 567.146 1703.23L552.325 1716.99C542.482 1710.28 532.415 1705.52 520.278 1701.89L520.39 1680.97C520.614 1673.92 515.077 1667.99 508.03 1667.72L468.097 1666.32C461.106 1666.09 455.066 1671.63 454.842 1678.68L454.059 1699.09C441.364 1701.78 431.576 1705.41 421.453 1711.12L407.695 1696.35C405.29 1693.78 402.438 1692.49 399.194 1692.6C396.286 1692.72 393.433 1694 390.916 1696.35L361.666 1723.59C356.521 1728.4 356.241 1734.77 360.995 1739.92L374.753 1754.74C368.21 1764.36 363.624 1774.15 359.932 1786.45L339.295 1786.12C335.939 1786 332.639 1787.23 330.123 1789.58C327.662 1791.93 326.208 1795.06 326.096 1798.48L324.698 1838.46C324.418 1845.57 330.011 1851.55 337.114 1851.83L357.919 1852.73C360.547 1864.92 364.574 1875.71 370.559 1886.28L355.794 1900.04C350.145 1905.3 349.474 1911.34 353.948 1916.15L381.185 1945.4C386.219 1950.77 394.328 1951.38 399.306 1946.74L414.127 1932.93C424.585 1940.03 434.037 1943.83 445.167 1947.08L444.272 1967.1C444.048 1974.15 449.585 1980.07 456.632 1980.35L496.621 1981.75C496.621 1981.75 496.956 1981.75 497.068 1981.75C500.312 1981.75 503.388 1980.52 505.793 1978.28C508.31 1975.94 509.764 1972.75 509.876 1969.39L510.715 1948.75C523.075 1946.13 533.477 1942.21 543.824 1936.39L557.582 1951.16C562.224 1956.14 570.11 1958.71 575.479 1953.68L604.73 1926.44C610.099 1921.41 608.813 1912.51 604.282 1907.65L590.412 1892.77C596.732 1882.59 601.766 1871.69 604.954 1861.51L625.311 1862.12C628.723 1862.23 631.967 1861 634.484 1858.71C637 1856.36 638.454 1853.23 638.566 1849.82L640.021 1809.88C640.132 1806.47 638.958 1803.23 636.609 1800.71L636.721 1800.6ZM631.631 1849.43C631.631 1850.94 630.904 1852.33 629.842 1853.4C628.723 1854.46 627.213 1854.96 625.703 1854.91L602.605 1854.18C600.815 1854.07 599.529 1855.19 599.081 1856.75C595.949 1867.83 590.3 1880.02 583.142 1891.09C582.247 1892.43 582.47 1894.34 583.589 1895.51L599.249 1912.34C601.374 1914.64 602.213 1919.11 600.032 1921.13L570.781 1948.36C568.6 1950.38 564.853 1948.36 562.896 1946.18L547.236 1929.35C546.117 1928.12 544.271 1927.84 542.817 1928.73C531.576 1935.44 520.894 1939.47 507.023 1942.15C506.184 1942.32 505.401 1942.77 504.898 1943.5L504.618 1943.83C504.171 1944.39 503.947 1945.12 503.891 1945.85L502.941 1968.94C502.941 1970.45 502.214 1971.91 501.095 1972.97C499.976 1974.03 498.522 1974.65 496.956 1974.54L456.968 1973.14C453.836 1973.03 451.319 1970.4 451.431 1967.27L452.437 1944.5C452.493 1942.88 451.431 1941.37 449.865 1940.92C437.393 1937.4 427.382 1933.6 415.916 1925.38C415.301 1924.93 414.63 1924.76 413.903 1924.76C413.008 1924.76 412.057 1925.1 411.386 1925.77L394.552 1941.43C392.203 1943.61 388.512 1942.6 386.442 1940.42L359.205 1911.17C358.254 1910.16 356.856 1908.65 360.659 1905.07L377.494 1889.41C378.724 1888.3 379.004 1886.45 378.109 1885C371.286 1873.53 367.035 1862.4 364.407 1848.92C364.239 1848.14 363.847 1847.41 363.232 1846.91L362.729 1846.52C362.113 1846.01 361.386 1845.73 360.603 1845.68L337.393 1844.67C334.261 1844.56 331.689 1841.82 331.8 1838.63L333.199 1798.64C333.199 1797.13 333.87 1795.68 334.988 1794.67C336.107 1793.61 337.505 1793.11 339.127 1793.16L362.505 1793.55C364.295 1793.55 365.525 1792.55 365.973 1790.98C369.887 1777 374.585 1766.99 382.136 1756.47C383.142 1755.13 382.919 1753.17 381.8 1751.94L366.14 1735.11C364.015 1732.82 364.127 1730.97 366.476 1728.79L395.726 1701.55C396.957 1700.43 398.243 1699.76 399.418 1699.71C400.592 1699.71 401.543 1700.15 402.494 1701.22L418.153 1718.05C419.272 1719.28 421.118 1719.5 422.572 1718.67C433.534 1712.12 443.825 1708.32 458.03 1705.52C459.093 1705.3 460.156 1704.4 460.603 1703.4C460.827 1702.95 460.939 1702.45 460.939 1702L461.833 1678.96C461.945 1675.82 464.63 1673.25 467.762 1673.42L507.694 1674.82C510.826 1674.93 513.287 1677.56 513.175 1680.8L513.064 1704.52C513.064 1706.14 514.126 1707.54 515.636 1707.93C529.227 1711.79 539.685 1716.71 550.424 1724.43C551.822 1725.43 553.723 1725.21 555.01 1724.09L571.844 1708.43C573.298 1707.09 574.808 1706.19 576.151 1705.97C577.269 1705.8 578.052 1706.08 578.891 1706.92L606.128 1736.17C608.253 1738.46 608.086 1742.6 605.737 1744.78L588.902 1760.44C587.672 1761.56 587.392 1763.41 588.287 1764.86C595.614 1777.17 598.746 1787.85 601.15 1800.04C601.43 1801.38 602.437 1802.39 603.723 1802.73C604.115 1802.84 604.506 1802.84 604.898 1802.84L627.437 1803.62C628.947 1803.62 630.345 1804.29 631.408 1805.41C632.47 1806.53 632.974 1807.98 632.918 1809.49L631.463 1849.43H631.631ZM580.457 1813.41C580.289 1811.84 580.066 1810.28 579.842 1808.71C579.618 1807.14 579.338 1805.58 579.003 1804.07C578.835 1803.29 578.667 1802.5 578.5 1801.72C578.164 1800.21 577.772 1798.64 577.325 1797.13C573.074 1782.09 565.468 1768.61 554.73 1757.09C546.117 1747.8 535.938 1740.42 524.585 1735.11C523.578 1734.61 522.571 1734.16 521.509 1733.71C520.558 1733.32 519.607 1732.87 518.6 1732.54C515.636 1731.36 512.616 1730.35 509.596 1729.52C508.086 1729.07 506.576 1728.68 505.01 1728.34C503.5 1728.01 501.934 1727.67 500.368 1727.39C499.585 1727.22 498.802 1727.11 498.019 1727C493.545 1726.33 489.014 1725.88 484.484 1725.82C479.954 1725.77 475.368 1725.99 470.894 1726.55C469.104 1726.78 467.258 1727.06 465.469 1727.33C460.044 1728.29 454.731 1729.74 449.529 1731.59C437.001 1736.06 425.704 1742.99 415.86 1752.11C395.67 1770.9 384.261 1797.58 384.597 1825.21C384.597 1827.56 384.764 1829.96 384.932 1832.26C384.988 1833.04 385.1 1833.82 385.156 1834.6C385.324 1836.17 385.547 1837.74 385.771 1839.3C386.498 1844 387.561 1848.64 389.015 1853.17C389.462 1854.68 390.022 1856.19 390.525 1857.7C394.999 1870.06 401.878 1881.25 410.939 1890.92C421.677 1902.45 434.54 1911 449.25 1916.32C450.76 1916.88 452.27 1917.38 453.724 1917.83C455.961 1918.5 458.31 1919.17 460.603 1919.67C462.113 1920.01 463.679 1920.34 465.245 1920.62C466.028 1920.79 466.811 1920.9 467.594 1921.01C469.16 1921.24 470.726 1921.46 472.292 1921.63C474.641 1921.91 476.99 1922.08 479.339 1922.13C480.513 1922.13 481.688 1922.19 482.862 1922.19C483.254 1922.19 483.645 1922.19 484.037 1922.19C487.952 1922.19 491.923 1921.85 495.782 1921.35C497.348 1921.13 498.914 1920.9 500.48 1920.62C502.046 1920.34 503.556 1920.01 505.122 1919.67C507.415 1919.11 509.764 1918.5 512.001 1917.83C526.151 1913.46 538.846 1906.08 549.752 1895.9C555.849 1890.25 561.162 1883.88 565.58 1876.94C566.475 1875.6 567.314 1874.2 568.097 1872.8C569.271 1870.73 570.39 1868.55 571.453 1866.43C572.124 1864.97 572.795 1863.52 573.41 1862.07C573.802 1861.11 574.193 1860.11 574.585 1859.1C575.312 1857.14 576.039 1855.13 576.654 1853.12C577.101 1851.61 577.549 1850.1 577.94 1848.59C578.276 1847.36 578.555 1846.13 578.779 1844.9C579.003 1843.83 579.227 1842.71 579.45 1841.65C579.562 1840.87 579.73 1840.09 579.842 1839.3C580.066 1837.74 580.289 1836.17 580.457 1834.66C580.569 1833.88 580.625 1833.09 580.681 1832.31C580.793 1830.75 580.904 1829.18 580.96 1827.61C580.96 1826.83 580.96 1826.05 580.96 1825.26C580.96 1822.13 580.904 1819 580.625 1815.87C580.569 1815.09 580.457 1814.3 580.401 1813.52L580.457 1813.41ZM573.857 1827.28C573.857 1828.73 573.69 1830.19 573.578 1831.64C573.522 1832.37 573.466 1833.09 573.354 1833.82C573.186 1835.28 573.019 1836.73 572.795 1838.18C572.683 1838.91 572.571 1839.64 572.403 1840.31C572.236 1841.32 572.012 1842.32 571.788 1843.33C571.564 1844.45 571.285 1845.62 571.005 1846.74C570.67 1848.14 570.222 1849.59 569.831 1850.99C569.271 1852.84 568.6 1854.74 567.929 1856.53C567.594 1857.42 567.202 1858.37 566.866 1859.27C566.307 1860.61 565.692 1861.95 565.077 1863.3C564.126 1865.31 563.063 1867.32 562.001 1869.22C561.274 1870.51 560.491 1871.8 559.652 1873.08C555.513 1879.52 550.591 1885.44 544.943 1890.7C534.82 1900.15 523.019 1906.98 509.932 1911.06C507.806 1911.73 505.681 1912.29 503.556 1912.79C502.102 1913.13 500.703 1913.41 499.249 1913.69C497.795 1913.97 496.341 1914.19 494.943 1914.36C491.363 1914.86 487.672 1915.09 484.037 1915.14C482.583 1915.14 481.129 1915.14 479.674 1915.14C477.493 1915.09 475.312 1914.92 473.131 1914.69C471.677 1914.53 470.223 1914.36 468.768 1914.13C468.041 1914.02 467.314 1913.91 466.587 1913.74C465.133 1913.46 463.735 1913.18 462.281 1912.85C460.156 1912.34 458.03 1911.79 455.905 1911.11C454.507 1910.67 453.109 1910.22 451.71 1909.72C438.064 1904.79 426.095 1896.85 416.14 1886.17C407.751 1877.17 401.375 1866.76 397.236 1855.35C396.733 1853.96 396.23 1852.56 395.838 1851.16C394.552 1846.96 393.545 1842.66 392.874 1838.3C392.65 1836.84 392.482 1835.39 392.315 1833.93C392.259 1833.21 392.147 1832.48 392.091 1831.75C391.923 1829.57 391.811 1827.39 391.755 1825.21C391.42 1799.59 402.046 1774.87 420.782 1757.42C429.898 1748.92 440.413 1742.55 451.99 1738.35C456.8 1736.62 461.722 1735.33 466.755 1734.44C468.433 1734.16 470.111 1733.88 471.789 1733.71C475.424 1733.26 479.171 1733.04 482.862 1733.04C483.366 1733.04 483.925 1733.04 484.428 1733.04C488.623 1733.1 492.874 1733.49 497.012 1734.1C497.739 1734.21 498.466 1734.33 499.193 1734.49C500.648 1734.77 502.046 1735.05 503.5 1735.39C504.898 1735.72 506.352 1736.06 507.75 1736.51C510.547 1737.29 513.399 1738.24 516.084 1739.3C516.979 1739.64 517.873 1740.03 518.768 1740.42C519.719 1740.81 520.67 1741.26 521.621 1741.71C532.191 1746.69 541.587 1753.51 549.585 1762.12C559.54 1772.8 566.587 1785.33 570.558 1799.26C570.949 1800.66 571.341 1802.11 571.676 1803.51C571.844 1804.24 572.012 1804.91 572.124 1805.63C572.403 1807.09 572.683 1808.49 572.907 1809.94C573.13 1811.39 573.298 1812.85 573.466 1814.3C573.522 1815.03 573.634 1815.76 573.69 1816.48C573.913 1819.39 574.025 1822.36 574.025 1825.21C574.025 1825.94 574.025 1826.66 574.025 1827.39L573.857 1827.28Z" fill="#FD4060"/>
<path d="M482.469 1413.91V1223.14" stroke="#FD4060" stroke-width="11.1856" stroke-linecap="round" stroke-linejoin="round"/>
<path d="M436.547 1431.08V1286.01" stroke="#FD4060" stroke-width="11.1856" stroke-linecap="round" stroke-linejoin="round"/>
<path d="M521.672 1453.51V1251.61" stroke="#FD4060" stroke-width="11.1856" stroke-linecap="round" stroke-linejoin="round"/>
<path d="M1950.28 1078.9V888.188" stroke="#FD4060" stroke-width="11.1856" stroke-linecap="round" stroke-linejoin="round"/>
<path d="M1904.36 1096.13V950.996" stroke="#FD4060" stroke-width="11.1856" stroke-linecap="round" stroke-linejoin="round"/>
<path d="M1989.47 1118.5V916.601" stroke="#FD4060" stroke-width="11.1856" stroke-linecap="round" stroke-linejoin="round"/>
<path d="M1018.77 1949.76V1992.05" stroke="#E2E2E2" stroke-width="11.1856" stroke-linecap="round" stroke-linejoin="round"/>
<path d="M1039.91 1970.9H997.625" stroke="#E2E2E2" stroke-width="11.1856" stroke-linecap="round" stroke-linejoin="round"/>
<path d="M1397.91 556.983V599.265" stroke="#FD4060" stroke-width="11.1856" stroke-linecap="round" stroke-linejoin="round"/>
<path d="M1419.03 578.123H1376.75" stroke="#FD4060" stroke-width="11.1856" stroke-linecap="round" stroke-linejoin="round"/>
<path d="M1751.52 1704.52V1746.8" stroke="#E2E2E2" stroke-width="11.1856" stroke-linecap="round" stroke-linejoin="round"/>
<path d="M1772.66 1725.66H1730.38" stroke="#E2E2E2" stroke-width="11.1856" stroke-linecap="round" stroke-linejoin="round"/>
<path d="M791.469 474.211V516.493" stroke="#07283E" stroke-width="11.1856" stroke-linecap="round" stroke-linejoin="round"/>
<path d="M812.61 495.351H770.328" stroke="#07283E" stroke-width="11.1856" stroke-linecap="round" stroke-linejoin="round"/>
<path d="M2099.8 1802.84V1845.12" stroke="#07283E" stroke-width="11.1856" stroke-linecap="round" stroke-linejoin="round"/>
<path d="M2120.94 1823.98H2078.66" stroke="#07283E" stroke-width="11.1856" stroke-linecap="round" stroke-linejoin="round"/>
<path d="M1730.42 364.144V406.425" stroke="#07283E" stroke-width="11.1856" stroke-linecap="round" stroke-linejoin="round"/>
<path d="M1751.55 385.283H1709.27" stroke="#07283E" stroke-width="11.1856" stroke-linecap="round" stroke-linejoin="round"/>
<path d="M1503.81 1666.32V1831.88C1503.81 1938.76 1590.45 2025.39 1697.32 2025.39C1804.2 2025.39 1890.84 1938.76 1890.84 1831.88V1666.32" stroke="#07283E" stroke-width="11.1856" stroke-linecap="round" stroke-linejoin="round"/>
<path d="M963.445 649.152V423.593C963.445 316.715 876.812 230.082 769.933 230.082C663.055 230.082 576.422 316.715 576.422 423.593V649.152" stroke="#07283E" stroke-width="11.1856" stroke-linecap="round" stroke-linejoin="round"/>
<path d="M1129.79 385.283H950.761C927.533 385.283 908.703 404.113 908.703 427.341V558.549C908.703 581.777 927.533 600.607 950.761 600.607H1129.79C1153.02 600.607 1171.85 581.777 1171.85 558.549V427.341C1171.85 404.113 1153.02 385.283 1129.79 385.283Z" fill="#FD4060"/>
<path d="M1011.12 481.536L973.422 495.35L1011.12 509.052V523.202L957.203 502.733V488.023L1011.12 467.554V481.592V481.536Z" fill="white"/>
<path d="M1051.72 439.59H1067.44L1030.08 546.245H1014.36L1051.72 439.59Z" fill="white"/>
<path d="M1123.41 487.968V502.677L1069.5 523.147V508.997L1107.2 495.295L1069.5 481.48V467.442L1123.41 487.912V487.968Z" fill="white"/>
<path d="M1359.7 1698.59H1538.72C1561.93 1698.59 1580.78 1717.44 1580.78 1740.65V1871.86C1580.78 1895.07 1561.93 1913.91 1538.72 1913.91H1359.7C1336.49 1913.91 1317.64 1895.07 1317.64 1871.86V1740.65C1317.64 1717.44 1336.49 1698.59 1359.7 1698.59Z" fill="#FD4060"/>
<path d="M1374.91 1806.25C1380 1807.99 1382.35 1811.34 1382.35 1819.23V1858.32C1382.35 1866.37 1386.15 1871.02 1394.37 1871.02H1398.62V1880.36H1392.75C1378.49 1880.36 1371.05 1873.37 1371.05 1859.27V1819.06C1371.05 1813.35 1368.53 1811.01 1363.95 1811.01H1358.58V1801.5H1363.95C1368.53 1801.5 1371.05 1799.15 1371.05 1793.44V1753.23C1371.05 1739.14 1378.49 1732.15 1392.75 1732.15H1398.62V1741.49H1394.37C1386.15 1741.49 1382.35 1746.07 1382.35 1754.18V1793.28C1382.35 1801.22 1380 1804.52 1374.91 1806.25Z" fill="white"/>
<path d="M1519.4 1793.28V1754.18C1519.4 1746.13 1515.6 1741.49 1507.38 1741.49H1503.12V1732.15H1509C1523.26 1732.15 1530.7 1739.14 1530.7 1753.23V1793.44C1530.7 1799.15 1533.21 1801.5 1537.8 1801.5H1543.17V1811.01H1537.8C1533.21 1811.01 1530.7 1813.35 1530.7 1819.06V1859.27C1530.7 1873.37 1523.26 1880.36 1509 1880.36H1503.12V1871.02H1507.38C1515.6 1871.02 1519.4 1866.43 1519.4 1858.32V1819.23C1519.4 1811.28 1521.75 1807.99 1526.84 1806.25C1521.75 1804.52 1519.4 1801.16 1519.4 1793.28Z" fill="white"/>
<path d="M1484.98 1838.46C1484.98 1842.32 1488.12 1845.46 1491.98 1845.46C1495.83 1845.46 1498.97 1842.32 1498.97 1838.46C1498.97 1834.61 1495.83 1831.47 1491.98 1831.47C1488.12 1831.47 1484.98 1834.61 1484.98 1838.46Z" fill="white"/>
<path d="M1443.88 1838.46C1443.88 1842.32 1447.01 1845.46 1450.87 1845.46C1454.73 1845.46 1457.86 1842.32 1457.86 1838.46C1457.86 1834.61 1454.73 1831.47 1450.87 1831.47C1447.01 1831.47 1443.88 1834.61 1443.88 1838.46Z" fill="white"/>
<path d="M1402.75 1838.46C1402.75 1842.32 1405.88 1845.46 1409.74 1845.46C1413.6 1845.46 1416.73 1842.32 1416.73 1838.46C1416.73 1834.61 1413.6 1831.47 1409.74 1831.47C1405.88 1831.47 1402.75 1834.61 1402.75 1838.46Z" fill="white"/>
</svg>
