<svg width="2512" height="2256" viewBox="0 0 2512 2256" fill="none" xmlns="http://www.w3.org/2000/svg">
<rect width="2512" height="2256" fill="#F3FBFF"/>
<g clip-path="url(#clip0_2_3954)">
<path d="M2267.74 308.8H1968.94C1932.44 308.8 1902.86 338.385 1902.86 374.88V673.68C1902.86 710.175 1932.44 739.76 1968.94 739.76H2267.74C2304.23 739.76 2333.82 710.175 2333.82 673.68V374.88C2333.82 338.385 2304.23 308.8 2267.74 308.8Z" fill="white" stroke="#07283E" stroke-width="6" stroke-miterlimit="10"/>
<path d="M541.88 1473.56H243.08C206.585 1473.56 177 1503.15 177 1539.64V1838.44C177 1874.94 206.585 1904.52 243.08 1904.52H541.88C578.375 1904.52 607.96 1874.94 607.96 1838.44V1539.64C607.96 1503.15 578.375 1473.56 541.88 1473.56Z" fill="white" stroke="#07283E" stroke-width="6" stroke-miterlimit="10"/>
<path d="M1745.85 450H766.15C734.035 450 708 475.993 708 508.058V1499.94C708 1532.01 734.035 1558 766.15 1558H1745.85C1777.97 1558 1804 1532.01 1804 1499.94V508.058C1804 475.993 1777.97 450 1745.85 450Z" fill="white" stroke="#07283E" stroke-width="6" stroke-miterlimit="10"/>
<path d="M1582.62 1670.26H926.836C912.654 1670.26 901.156 1681.76 901.156 1695.94V1961.78C901.156 1975.96 912.654 1987.46 926.836 1987.46H1582.62C1596.8 1987.46 1608.3 1975.96 1608.3 1961.78V1695.94C1608.3 1681.76 1596.8 1670.26 1582.62 1670.26Z" fill="white" stroke="#07283E" stroke-width="6" stroke-miterlimit="10"/>
<path d="M2099.57 959.801H413.493C337.808 959.801 276.453 1021.16 276.453 1096.84C276.453 1172.53 337.808 1233.88 413.493 1233.88H2099.57C2175.26 1233.88 2236.61 1172.53 2236.61 1096.84C2236.61 1021.16 2175.26 959.801 2099.57 959.801Z" fill="white" stroke="#07283E" stroke-width="6" stroke-miterlimit="10"/>
<path d="M280.659 718.48H510.219C536.728 718.48 558.219 696.99 558.219 670.48V315C558.219 288.491 536.728 267 510.219 267L280.659 267C254.149 267 232.659 288.491 232.659 315L232.659 670.48C232.659 696.99 254.149 718.48 280.659 718.48Z" fill="white" stroke="#07283E" stroke-width="6" stroke-miterlimit="10"/>
<path d="M558.219 349.38L232.659 349.38V314.46C232.659 288.28 253.919 267.02 280.099 267.02H510.759C536.939 267.02 558.199 288.28 558.199 314.46V349.38H558.219Z" fill="#07283E" stroke="#07283E" stroke-width="6" stroke-miterlimit="10"/>
<path d="M510.759 718.48H280.079C253.899 718.48 232.639 697.22 232.639 671.04V648.12H558.219V671.04C558.219 697.22 536.959 718.48 510.779 718.48H510.759Z" fill="#07283E" stroke="#07283E" stroke-width="6" stroke-miterlimit="10"/>
<path d="M794.724 585.4C766.004 593.56 770.404 631.2 800.164 633C1158.36 631.94 1136.92 634.74 1494.92 631.6C1520.88 620.4 1514.02 586.34 1486.32 584.84L794.724 585.4Z" fill="#F5F5F5"/>
<path d="M794.724 670.74C766.004 678.9 770.404 716.54 800.164 718.34C1229.04 717.28 1178.26 720.08 1606.92 716.94C1632.88 705.74 1626.02 671.68 1598.32 670.18L794.724 670.74Z" fill="#F5F5F5"/>
<path d="M794.724 826.38C766.004 834.54 770.404 872.18 800.164 873.98C1229.04 872.92 1178.26 875.72 1606.92 872.58C1632.88 861.38 1626.02 827.32 1598.32 825.82L794.724 826.38Z" fill="#F5F5F5"/>
<path d="M794.724 746.439C766.004 754.599 770.404 792.239 800.164 794.039C1158.36 792.979 1036.92 795.779 1394.92 792.639C1420.88 781.439 1414.02 747.379 1386.32 745.879L794.724 746.439Z" fill="#F5F5F5"/>
<path d="M1187.04 1734.32C1158.32 1742.48 1162.72 1780.12 1192.48 1781.92C1550.68 1780.86 1189.24 1783.66 1547.24 1780.52C1573.2 1769.32 1566.34 1735.26 1538.64 1733.76L1187.04 1734.32Z" fill="#F5F5F5"/>
<path d="M1187.04 1819.66C1158.32 1827.82 1162.72 1865.46 1192.48 1867.26C1621.36 1866.2 1110.58 1869 1539.24 1865.86C1565.2 1854.66 1558.34 1820.6 1530.64 1819.1L1187.04 1819.66Z" fill="#F5F5F5"/>
<path d="M1187.04 1895.36C1158.32 1903.52 1162.72 1941.16 1192.48 1942.96C1550.68 1941.9 1089.24 1944.7 1447.24 1941.56C1473.2 1930.36 1466.34 1896.3 1438.64 1894.8L1187.04 1895.36Z" fill="#F5F5F5"/>
<path d="M794.724 1269.62C766.004 1277.78 770.404 1315.42 800.164 1317.22C1158.36 1316.16 1136.92 1318.96 1494.92 1315.82C1520.88 1304.62 1514.02 1270.56 1486.32 1269.06L794.724 1269.62Z" fill="#F5F5F5"/>
<path d="M794.724 1348.74C766.004 1356.9 770.404 1394.54 800.164 1396.34C1158.36 1395.28 1136.92 1398.08 1494.92 1394.94C1520.88 1383.74 1514.02 1349.68 1486.32 1348.18L794.724 1348.74Z" fill="#F5F5F5"/>
<path d="M2076.52 429.32H2107.28L2185.06 607.24H2153.04L2091.02 459.56L2029.26 607.24H1998L2076.54 429.32H2076.52ZM2037.14 540.64H2143.64V566.06H2037.14V540.64Z" fill="#FD4060"/>
<path d="M2208.7 429.32H2238.7V607.24H2208.7V429.32Z" fill="#FD4060"/>
<path d="M402.146 1058.5H413.006L440.486 1121.34H429.166L407.266 1069.18L385.446 1121.34H374.406L402.146 1058.5ZM388.226 1097.82H425.846V1106.8H388.226V1097.82Z" fill="#07283E"/>
<path d="M448.188 1073.68H458.508V1121.34H448.188V1073.68ZM483.568 1094.42C483.568 1092.56 483.308 1090.9 482.788 1089.42C482.268 1087.94 481.507 1086.68 480.527 1085.64C479.547 1084.6 478.328 1083.82 476.908 1083.28C475.488 1082.74 473.887 1082.48 472.087 1082.48C469.967 1082.52 468.047 1082.92 466.367 1083.72C464.667 1084.52 463.247 1085.6 462.087 1086.98C460.927 1088.36 460.028 1089.98 459.388 1091.86C458.748 1093.74 458.448 1095.76 458.448 1097.94H455.568C455.568 1093.52 456.048 1089.74 457.008 1086.66C457.968 1083.56 459.328 1081.02 461.108 1079.06C462.888 1077.08 465.048 1075.64 467.568 1074.76C470.088 1073.86 472.948 1073.4 476.128 1073.36C478.908 1073.36 481.408 1073.78 483.608 1074.64C485.808 1075.5 487.667 1076.72 489.188 1078.3C490.708 1079.88 491.888 1081.82 492.688 1084.1C493.487 1086.38 493.908 1088.94 493.908 1091.78V1121.4H483.587V1094.46L483.568 1094.42Z" fill="#07283E"/>
<path d="M534.913 1085.26C532.793 1084 530.493 1083 528.053 1082.26C525.593 1081.52 523.313 1081.14 521.193 1081.14C520.173 1081.14 519.233 1081.22 518.393 1081.4C517.553 1081.58 516.793 1081.88 516.173 1082.28C515.553 1082.68 515.053 1083.2 514.713 1083.86C514.373 1084.5 514.193 1085.28 514.193 1086.18C514.193 1087.32 514.553 1088.26 515.293 1089C516.033 1089.74 516.993 1090.4 518.173 1090.92C519.353 1091.46 520.713 1091.94 522.233 1092.38C523.753 1092.82 525.313 1093.3 526.893 1093.82C528.473 1094.34 530.033 1094.94 531.533 1095.64C533.053 1096.32 534.393 1097.2 535.573 1098.26C536.753 1099.32 537.713 1100.62 538.413 1102.14C539.113 1103.66 539.493 1105.52 539.493 1107.7C539.493 1110.12 538.993 1112.22 537.993 1113.98C536.993 1115.74 535.653 1117.2 533.953 1118.34C532.273 1119.48 530.313 1120.32 528.093 1120.88C525.873 1121.44 523.573 1121.72 521.173 1121.72C519.433 1121.72 517.673 1121.58 515.893 1121.3C514.113 1121.02 512.393 1120.6 510.733 1120.02C509.073 1119.46 507.493 1118.76 505.993 1117.94C504.493 1117.12 503.153 1116.16 501.953 1115.08L505.633 1108.08C506.673 1109 507.853 1109.84 509.153 1110.58C510.453 1111.32 511.813 1111.94 513.213 1112.44C514.613 1112.94 516.053 1113.34 517.493 1113.6C518.953 1113.86 520.313 1114 521.593 1114C522.693 1114 523.733 1113.9 524.673 1113.68C525.613 1113.48 526.433 1113.14 527.133 1112.72C527.833 1112.28 528.393 1111.72 528.793 1111.04C529.193 1110.36 529.393 1109.54 529.393 1108.62C529.393 1107.36 529.033 1106.32 528.313 1105.5C527.593 1104.68 526.653 1103.98 525.473 1103.4C524.293 1102.82 522.953 1102.3 521.453 1101.86C519.953 1101.42 518.433 1100.94 516.853 1100.42C515.273 1099.92 513.753 1099.32 512.253 1098.66C510.753 1098 509.413 1097.16 508.233 1096.14C507.053 1095.12 506.113 1093.86 505.413 1092.36C504.713 1090.86 504.353 1089.04 504.353 1086.88C504.353 1084.46 504.833 1082.38 505.813 1080.66C506.793 1078.94 508.093 1077.52 509.713 1076.42C511.353 1075.32 513.213 1074.5 515.353 1074C517.473 1073.5 519.673 1073.24 521.953 1073.24C523.453 1073.24 524.953 1073.36 526.493 1073.58C528.033 1073.8 529.493 1074.12 530.933 1074.52C532.373 1074.92 533.753 1075.42 535.053 1076C536.373 1076.58 537.573 1077.24 538.653 1078L534.893 1085.28L534.913 1085.26Z" fill="#07283E"/>
<path d="M541.462 1073.68H552.062L564.442 1111.84L576.462 1073.68H587.142L599.262 1111.84L611.462 1073.68H621.962L604.542 1121.34H593.862L581.742 1085.26L569.622 1121.34H559.022L541.422 1073.68H541.462Z" fill="#07283E"/>
<path d="M660.872 1094.06C660.792 1092.06 660.413 1090.26 659.753 1088.68C659.093 1087.1 658.193 1085.74 657.033 1084.64C655.873 1083.54 654.513 1082.68 652.913 1082.1C651.313 1081.52 649.532 1081.22 647.592 1081.22C645.472 1081.22 643.533 1081.6 641.773 1082.34C640.013 1083.08 638.513 1084.16 637.253 1085.54C635.993 1086.94 635.013 1088.6 634.333 1090.52C633.653 1092.44 633.293 1094.62 633.293 1097C633.293 1099.54 633.673 1101.86 634.413 1103.94C635.153 1106.02 636.213 1107.78 637.553 1109.24C638.893 1110.7 640.512 1111.82 642.372 1112.6C644.252 1113.4 646.293 1113.78 648.553 1113.78C651.193 1113.78 653.653 1113.3 655.933 1112.34C658.213 1111.38 660.253 1109.98 662.013 1108.12L667.493 1113.6C665.153 1116.18 662.333 1118.16 658.993 1119.56C655.653 1120.96 651.913 1121.68 647.753 1121.68C644.073 1121.68 640.733 1121.1 637.713 1119.92C634.693 1118.74 632.133 1117.1 630.013 1114.98C627.893 1112.86 626.233 1110.32 625.073 1107.36C623.913 1104.4 623.312 1101.12 623.312 1097.52C623.312 1093.92 623.892 1090.66 625.092 1087.68C626.272 1084.72 627.933 1082.18 630.073 1080.04C632.213 1077.92 634.773 1076.26 637.733 1075.08C640.693 1073.9 643.933 1073.3 647.473 1073.26C651.653 1073.26 655.253 1073.92 658.233 1075.24C661.213 1076.56 663.613 1078.42 665.433 1080.86C667.253 1083.28 668.533 1086.24 669.253 1089.7C669.973 1093.18 670.173 1097.06 669.833 1101.38H631.673V1094.02H660.853L660.872 1094.06Z" fill="#07283E"/>
<path d="M680.609 1073.68H690.929V1121.34H680.609V1073.68ZM707.449 1082.66C704.869 1082.54 702.569 1082.86 700.509 1083.6C698.449 1084.34 696.709 1085.42 695.289 1086.8C693.849 1088.2 692.749 1089.86 691.989 1091.82C691.229 1093.78 690.849 1095.92 690.849 1098.26L687.969 1097.9C687.969 1093.9 688.409 1090.36 689.309 1087.3C690.209 1084.24 691.489 1081.68 693.169 1079.62C694.849 1077.56 696.889 1076 699.289 1074.92C701.689 1073.86 704.409 1073.32 707.429 1073.28V1082.62L707.449 1082.66Z" fill="#07283E"/>
<path d="M740.848 1058.5H785.728V1067.56H751.428V1085.24H782.128V1094.22H751.428V1112.26H786.788V1121.32H740.828V1058.48L740.848 1058.5Z" fill="#07283E"/>
<path d="M799.109 1073.68H809.429V1121.34H799.109V1073.68ZM834.469 1094.42C834.469 1092.56 834.209 1090.9 833.689 1089.42C833.169 1087.94 832.409 1086.68 831.429 1085.64C830.449 1084.6 829.229 1083.82 827.809 1083.28C826.389 1082.74 824.789 1082.48 822.989 1082.48C820.869 1082.52 818.949 1082.92 817.269 1083.72C815.569 1084.52 814.149 1085.6 812.989 1086.98C811.829 1088.36 810.929 1089.98 810.289 1091.86C809.649 1093.74 809.349 1095.76 809.349 1097.94H806.469C806.469 1093.52 806.949 1089.74 807.909 1086.66C808.869 1083.56 810.229 1081.02 812.009 1079.06C813.789 1077.08 815.949 1075.64 818.469 1074.76C820.989 1073.86 823.849 1073.4 827.029 1073.36C829.809 1073.36 832.309 1073.78 834.509 1074.64C836.709 1075.5 838.569 1076.72 840.089 1078.3C841.609 1079.88 842.789 1081.82 843.589 1084.1C844.389 1086.38 844.809 1088.94 844.809 1091.78V1121.4H834.489V1094.46L834.469 1094.42Z" fill="#07283E"/>
<path d="M884.064 1074.82C886.524 1075.86 888.584 1077.36 890.284 1079.34C891.984 1081.32 893.264 1083.72 894.144 1086.54C895.024 1089.36 895.444 1092.56 895.424 1096.12C895.444 1099.72 895.044 1102.92 894.184 1105.78C893.324 1108.62 892.084 1111.04 890.404 1113C888.744 1114.98 886.704 1116.48 884.304 1117.54C881.884 1118.58 879.144 1119.12 876.024 1119.12C872.904 1119.12 869.844 1118.56 867.204 1117.44C864.564 1116.32 862.284 1114.74 860.404 1112.7C858.524 1110.66 857.064 1108.24 856.024 1105.4C854.984 1102.58 854.484 1099.46 854.484 1096.04C854.484 1092.62 854.984 1089.62 856.004 1086.86C857.024 1084.1 858.464 1081.7 860.304 1079.7C862.144 1077.7 864.384 1076.14 866.984 1075.04C869.584 1073.94 872.484 1073.36 875.644 1073.34C878.784 1073.32 881.584 1073.82 884.044 1074.84L884.064 1074.82ZM902.064 1116.58C902.064 1120.06 901.464 1123.18 900.284 1125.94C899.104 1128.7 897.444 1131.06 895.284 1132.98C893.124 1134.92 890.524 1136.4 887.464 1137.44C884.404 1138.48 881.024 1139.02 877.284 1139.02C875.424 1139.02 873.624 1138.88 871.884 1138.6C870.124 1138.32 868.424 1137.9 866.764 1137.36C865.104 1136.82 863.504 1136.16 861.964 1135.38C860.424 1134.6 858.924 1133.72 857.444 1132.74L861.844 1125.64C862.984 1126.5 864.124 1127.28 865.284 1127.94C866.444 1128.6 867.624 1129.16 868.844 1129.6C870.064 1130.04 871.344 1130.38 872.664 1130.6C873.984 1130.82 875.364 1130.94 876.844 1130.94C879.124 1130.94 881.184 1130.6 883.024 1129.96C884.864 1129.3 886.444 1128.36 887.744 1127.14C889.044 1125.92 890.064 1124.44 890.784 1122.7C891.504 1120.96 891.864 1119.02 891.864 1116.86V1073.68H902.104V1116.6L902.064 1116.58ZM872.484 1082.34C870.784 1083.08 869.324 1084.12 868.104 1085.46C866.884 1086.8 865.944 1088.38 865.244 1090.22C864.564 1092.06 864.204 1094.08 864.164 1096.3C864.184 1098.48 864.544 1100.5 865.224 1102.36C865.904 1104.22 866.844 1105.8 868.044 1107.14C869.264 1108.48 870.704 1109.52 872.424 1110.26C874.124 1111 876.024 1111.38 878.084 1111.38C880.144 1111.38 881.964 1111 883.644 1110.26C885.324 1109.52 886.764 1108.48 887.984 1107.14C889.204 1105.8 890.144 1104.22 890.804 1102.36C891.464 1100.5 891.804 1098.48 891.804 1096.3C891.804 1094.12 891.464 1092.06 890.804 1090.2C890.144 1088.34 889.184 1086.76 887.984 1085.42C886.764 1084.08 885.324 1083.06 883.644 1082.32C881.964 1081.58 880.104 1081.22 878.084 1081.22C876.064 1081.22 874.184 1081.6 872.464 1082.34H872.484Z" fill="#07283E"/>
<path d="M923.951 1054.46C924.691 1054.76 925.311 1055.18 925.851 1055.72C926.391 1056.26 926.811 1056.9 927.111 1057.62C927.411 1058.34 927.551 1059.16 927.551 1060.02C927.551 1060.88 927.391 1061.64 927.111 1062.38C926.811 1063.12 926.391 1063.74 925.851 1064.28C925.311 1064.82 924.671 1065.24 923.951 1065.56C923.211 1065.88 922.411 1066.04 921.551 1066.04C920.691 1066.04 919.931 1065.88 919.191 1065.56C918.451 1065.24 917.831 1064.82 917.291 1064.28C916.751 1063.74 916.331 1063.1 916.011 1062.38C915.691 1061.64 915.531 1060.86 915.531 1060.02C915.531 1059.18 915.691 1058.36 916.011 1057.62C916.331 1056.88 916.751 1056.26 917.291 1055.72C917.831 1055.18 918.471 1054.76 919.191 1054.46C919.911 1054.16 920.711 1054.02 921.551 1054.02C922.391 1054.02 923.211 1054.18 923.951 1054.46ZM916.431 1073.68H926.671V1121.34H916.431V1073.68Z" fill="#07283E"/>
<path d="M941.922 1073.68H952.242V1121.34H941.922V1073.68ZM977.302 1094.42C977.302 1092.56 977.042 1090.9 976.522 1089.42C976.002 1087.94 975.242 1086.68 974.262 1085.64C973.282 1084.6 972.062 1083.82 970.642 1083.28C969.222 1082.74 967.622 1082.48 965.822 1082.48C963.702 1082.52 961.782 1082.92 960.102 1083.72C958.402 1084.52 956.982 1085.6 955.822 1086.98C954.662 1088.36 953.762 1089.98 953.122 1091.86C952.482 1093.74 952.182 1095.76 952.182 1097.94H949.302C949.302 1093.52 949.782 1089.74 950.742 1086.66C951.702 1083.56 953.062 1081.02 954.842 1079.06C956.622 1077.08 958.782 1075.64 961.302 1074.76C963.822 1073.86 966.682 1073.4 969.862 1073.36C972.642 1073.36 975.142 1073.78 977.342 1074.64C979.542 1075.5 981.402 1076.72 982.922 1078.3C984.442 1079.88 985.622 1081.82 986.422 1084.1C987.222 1086.38 987.642 1088.94 987.642 1091.78V1121.4H977.322V1094.46L977.302 1094.42Z" fill="#07283E"/>
<path d="M1034.84 1094.06C1034.76 1092.06 1034.38 1090.26 1033.72 1088.68C1033.06 1087.1 1032.16 1085.74 1031 1084.64C1029.84 1083.54 1028.48 1082.68 1026.88 1082.1C1025.28 1081.52 1023.5 1081.22 1021.56 1081.22C1019.44 1081.22 1017.5 1081.6 1015.74 1082.34C1013.98 1083.08 1012.48 1084.16 1011.22 1085.54C1009.96 1086.94 1008.98 1088.6 1008.3 1090.52C1007.62 1092.44 1007.26 1094.62 1007.26 1097C1007.26 1099.54 1007.64 1101.86 1008.38 1103.94C1009.12 1106.02 1010.18 1107.78 1011.52 1109.24C1012.86 1110.7 1014.48 1111.82 1016.34 1112.6C1018.22 1113.4 1020.26 1113.78 1022.52 1113.78C1025.16 1113.78 1027.62 1113.3 1029.9 1112.34C1032.18 1111.38 1034.22 1109.98 1035.98 1108.12L1041.46 1113.6C1039.12 1116.18 1036.3 1118.16 1032.96 1119.56C1029.62 1120.96 1025.88 1121.68 1021.72 1121.68C1018.04 1121.68 1014.7 1121.1 1011.68 1119.92C1008.66 1118.74 1006.1 1117.1 1003.98 1114.98C1001.86 1112.86 1000.2 1110.32 999.041 1107.36C997.881 1104.4 997.281 1101.12 997.281 1097.52C997.281 1093.92 997.861 1090.66 999.061 1087.68C1000.24 1084.72 1001.9 1082.18 1004.04 1080.04C1006.18 1077.92 1008.74 1076.26 1011.7 1075.08C1014.66 1073.9 1017.9 1073.3 1021.44 1073.26C1025.62 1073.26 1029.22 1073.92 1032.2 1075.24C1035.18 1076.56 1037.58 1078.42 1039.4 1080.86C1041.22 1083.28 1042.5 1086.24 1043.22 1089.7C1043.94 1093.18 1044.14 1097.06 1043.8 1101.38H1005.64V1094.02H1034.82L1034.84 1094.06Z" fill="#07283E"/>
<path d="M1120.69 1060.34C1124.75 1061.98 1128.27 1064.24 1131.27 1067.12C1134.27 1070 1136.61 1073.38 1138.31 1077.26C1140.01 1081.14 1140.87 1085.34 1140.87 1089.82C1140.87 1094.3 1140.01 1098.56 1138.31 1102.48C1136.61 1106.4 1134.25 1109.82 1131.27 1112.72C1128.27 1115.62 1124.75 1117.9 1120.69 1119.56C1116.63 1121.22 1112.25 1122.06 1107.57 1122.06C1102.89 1122.06 1098.49 1121.22 1094.45 1119.56C1090.39 1117.9 1086.87 1115.62 1083.87 1112.72C1080.87 1109.82 1078.53 1106.4 1076.83 1102.48C1075.13 1098.56 1074.27 1094.34 1074.27 1089.82C1074.27 1085.3 1075.13 1081.1 1076.83 1077.2C1078.53 1073.32 1080.89 1069.92 1083.87 1067.06C1086.85 1064.2 1090.39 1061.94 1094.45 1060.3C1098.51 1058.66 1102.87 1057.86 1107.57 1057.86C1112.27 1057.86 1116.65 1058.68 1120.69 1060.32V1060.34ZM1098.89 1068.64C1096.13 1069.84 1093.73 1071.46 1091.69 1073.54C1089.63 1075.6 1088.01 1078.04 1086.83 1080.84C1085.63 1083.64 1085.03 1086.64 1085.03 1089.84C1085.03 1093.04 1085.63 1096.1 1086.83 1098.92C1088.03 1101.74 1089.65 1104.2 1091.73 1106.3C1093.79 1108.4 1096.19 1110.04 1098.93 1111.26C1101.67 1112.48 1104.57 1113.08 1107.67 1113.08C1110.77 1113.08 1113.65 1112.48 1116.35 1111.26C1119.05 1110.04 1121.43 1108.4 1123.45 1106.3C1125.47 1104.2 1127.07 1101.74 1128.25 1098.92C1129.43 1096.1 1130.03 1093.06 1130.03 1089.84C1130.03 1086.62 1129.43 1083.64 1128.25 1080.84C1127.07 1078.04 1125.47 1075.62 1123.45 1073.54C1121.43 1071.48 1119.07 1069.84 1116.35 1068.64C1113.65 1067.44 1110.75 1066.84 1107.67 1066.84C1104.59 1066.84 1101.67 1067.44 1098.91 1068.64H1098.89Z" fill="#07283E"/>
<path d="M1151.98 1073.68H1162.3V1138.76H1151.98V1073.68ZM1188.28 1075.1C1191.08 1076.28 1193.48 1077.94 1195.48 1080.08C1197.48 1082.22 1199.04 1084.78 1200.14 1087.76C1201.24 1090.74 1201.8 1094.04 1201.8 1097.66C1201.8 1101.28 1201.26 1104.48 1200.18 1107.44C1199.1 1110.4 1197.58 1112.94 1195.6 1115.04C1193.62 1117.14 1191.24 1118.78 1188.46 1119.96C1185.68 1121.12 1182.58 1121.72 1179.16 1121.72C1175.74 1121.72 1172.98 1121.16 1170.4 1120.06C1167.82 1118.96 1165.66 1117.36 1163.9 1115.3C1162.14 1113.24 1160.78 1110.72 1159.86 1107.74C1158.94 1104.76 1158.48 1101.4 1158.52 1097.66C1158.48 1093.82 1158.94 1090.4 1159.86 1087.38C1160.78 1084.36 1162.14 1081.8 1163.9 1079.72C1165.66 1077.64 1167.82 1076.06 1170.36 1074.96C1172.9 1073.86 1175.78 1073.32 1178.98 1073.32C1182.36 1073.32 1185.46 1073.92 1188.24 1075.1H1188.28ZM1171 1082.68C1169.22 1083.48 1167.68 1084.58 1166.4 1085.98C1165.12 1087.38 1164.12 1089.06 1163.4 1091C1162.68 1092.94 1162.32 1095.08 1162.32 1097.38C1162.32 1099.68 1162.68 1101.9 1163.4 1103.86C1164.12 1105.82 1165.12 1107.5 1166.4 1108.9C1167.68 1110.3 1169.22 1111.4 1171 1112.18C1172.78 1112.96 1174.74 1113.34 1176.86 1113.34C1178.98 1113.34 1180.94 1112.94 1182.72 1112.16C1184.5 1111.36 1186.04 1110.26 1187.32 1108.86C1188.6 1107.46 1189.6 1105.78 1190.32 1103.82C1191.04 1101.86 1191.4 1099.72 1191.4 1097.38C1191.4 1095.04 1191.04 1092.96 1190.32 1091.02C1189.6 1089.1 1188.6 1087.42 1187.32 1086C1186.04 1084.58 1184.5 1083.48 1182.72 1082.68C1180.94 1081.88 1178.98 1081.5 1176.86 1081.5C1174.74 1081.5 1172.78 1081.9 1171 1082.68Z" fill="#07283E"/>
<path d="M1207.72 1073.68H1238.78V1081.04H1207.72V1073.68ZM1224.7 1106.26C1224.7 1107.54 1224.82 1108.62 1225.04 1109.46C1225.26 1110.3 1225.6 1111 1226.04 1111.5C1226.48 1112 1227.02 1112.36 1227.66 1112.58C1228.28 1112.78 1229 1112.9 1229.82 1112.9C1230.9 1112.9 1232.02 1112.72 1233.16 1112.36C1234.32 1112 1235.58 1111.46 1237 1110.74L1239.6 1118.2C1238.68 1118.76 1237.72 1119.28 1236.74 1119.72C1235.76 1120.16 1234.78 1120.56 1233.8 1120.86C1232.82 1121.18 1231.82 1121.4 1230.84 1121.56C1229.86 1121.7 1228.84 1121.78 1227.84 1121.78C1226.04 1121.78 1224.34 1121.52 1222.72 1121.02C1221.1 1120.52 1219.68 1119.7 1218.46 1118.6C1217.24 1117.5 1216.26 1116.08 1215.54 1114.34C1214.82 1112.6 1214.46 1110.5 1214.46 1108.06V1062.36H1224.7V1106.26Z" fill="#07283E"/>
<path d="M1256.64 1054.46C1257.38 1054.76 1258 1055.18 1258.54 1055.72C1259.08 1056.26 1259.5 1056.9 1259.8 1057.62C1260.1 1058.34 1260.24 1059.16 1260.24 1060.02C1260.24 1060.88 1260.08 1061.64 1259.8 1062.38C1259.5 1063.12 1259.08 1063.74 1258.54 1064.28C1258 1064.82 1257.36 1065.24 1256.64 1065.56C1255.9 1065.88 1255.1 1066.04 1254.24 1066.04C1253.38 1066.04 1252.62 1065.88 1251.88 1065.56C1251.14 1065.24 1250.52 1064.82 1249.98 1064.28C1249.44 1063.74 1249.02 1063.1 1248.7 1062.38C1248.38 1061.64 1248.22 1060.86 1248.22 1060.02C1248.22 1059.18 1248.38 1058.36 1248.7 1057.62C1249.02 1056.88 1249.44 1056.26 1249.98 1055.72C1250.52 1055.18 1251.16 1054.76 1251.88 1054.46C1252.6 1054.16 1253.4 1054.02 1254.24 1054.02C1255.08 1054.02 1255.9 1054.18 1256.64 1054.46ZM1249.12 1073.68H1259.36V1121.34H1249.12V1073.68Z" fill="#07283E"/>
<path d="M1274.61 1073.68H1284.85V1121.34H1274.61V1073.68ZM1309.35 1094.42C1309.35 1092.54 1309.09 1090.84 1308.59 1089.34C1308.09 1087.84 1307.35 1086.58 1306.37 1085.54C1305.39 1084.5 1304.23 1083.72 1302.85 1083.18C1301.47 1082.64 1299.91 1082.38 1298.13 1082.38C1296.07 1082.44 1294.21 1082.88 1292.57 1083.68C1290.93 1084.48 1289.53 1085.58 1288.39 1086.96C1287.25 1088.34 1286.37 1089.96 1285.77 1091.8C1285.15 1093.66 1284.85 1095.66 1284.85 1097.82H1281.97C1281.97 1093.42 1282.45 1089.68 1283.39 1086.58C1284.33 1083.48 1285.67 1080.96 1287.43 1079C1289.19 1077.04 1291.31 1075.62 1293.81 1074.72C1296.31 1073.82 1299.09 1073.36 1302.19 1073.32C1304.95 1073.32 1307.39 1073.74 1309.55 1074.6C1311.71 1075.46 1313.53 1076.68 1315.05 1078.26C1316.55 1079.84 1317.71 1081.78 1318.51 1084.06C1319.31 1086.34 1319.69 1088.9 1319.69 1091.74V1121.36H1309.37V1094.42H1309.35ZM1344.11 1094.42C1344.11 1092.54 1343.85 1090.84 1343.33 1089.34C1342.81 1087.84 1342.05 1086.58 1341.09 1085.54C1340.11 1084.5 1338.93 1083.72 1337.55 1083.18C1336.15 1082.64 1334.57 1082.38 1332.81 1082.38C1330.77 1082.44 1328.95 1082.88 1327.31 1083.68C1325.67 1084.48 1324.31 1085.58 1323.19 1086.96C1322.07 1088.34 1321.21 1089.96 1320.61 1091.8C1320.01 1093.66 1319.71 1095.66 1319.71 1097.82H1316.75C1316.75 1093.42 1317.23 1089.68 1318.17 1086.58C1319.11 1083.48 1320.45 1080.96 1322.21 1079C1323.97 1077.04 1326.09 1075.62 1328.59 1074.72C1331.09 1073.82 1333.87 1073.36 1336.97 1073.32C1339.73 1073.32 1342.17 1073.74 1344.33 1074.6C1346.49 1075.46 1348.31 1076.68 1349.83 1078.26C1351.35 1079.84 1352.49 1081.78 1353.29 1084.06C1354.09 1086.34 1354.47 1088.9 1354.47 1091.74V1121.36H1344.15V1094.42H1344.11Z" fill="#07283E"/>
<path d="M1375.76 1054.46C1376.5 1054.76 1377.12 1055.18 1377.66 1055.72C1378.2 1056.26 1378.62 1056.9 1378.92 1057.62C1379.22 1058.34 1379.36 1059.16 1379.36 1060.02C1379.36 1060.88 1379.2 1061.64 1378.92 1062.38C1378.62 1063.12 1378.2 1063.74 1377.66 1064.28C1377.12 1064.82 1376.48 1065.24 1375.76 1065.56C1375.02 1065.88 1374.22 1066.04 1373.36 1066.04C1372.5 1066.04 1371.74 1065.88 1371 1065.56C1370.26 1065.24 1369.64 1064.82 1369.1 1064.28C1368.56 1063.74 1368.14 1063.1 1367.82 1062.38C1367.5 1061.64 1367.34 1060.86 1367.34 1060.02C1367.34 1059.18 1367.5 1058.36 1367.82 1057.62C1368.14 1056.88 1368.56 1056.26 1369.1 1055.72C1369.64 1055.18 1370.28 1054.76 1371 1054.46C1371.72 1054.16 1372.52 1054.02 1373.36 1054.02C1374.2 1054.02 1375.02 1054.18 1375.76 1054.46ZM1368.24 1073.68H1378.48V1121.34H1368.24V1073.68Z" fill="#07283E"/>
<path d="M1390.97 1073.68L1430.21 1073.76V1080.4L1402.91 1113.44H1431.01V1121.42L1390.17 1121.34V1114.7L1417.47 1081.66L1390.99 1081.58V1073.68H1390.97Z" fill="#07283E"/>
<path d="M1457.56 1100.06C1454.18 1100.06 1451.68 1100.56 1450.08 1101.58C1448.48 1102.6 1447.68 1104.28 1447.68 1106.6C1447.68 1107.7 1447.88 1108.7 1448.3 1109.6C1448.72 1110.5 1449.34 1111.26 1450.14 1111.88C1450.94 1112.5 1451.92 1113 1453.06 1113.34C1454.2 1113.68 1455.48 1113.86 1456.92 1113.86C1458.84 1113.86 1460.62 1113.6 1462.26 1113.08C1463.9 1112.56 1465.34 1111.84 1466.54 1110.94C1467.76 1110.04 1468.72 1108.98 1469.44 1107.74C1470.16 1106.5 1470.54 1105.16 1470.56 1103.72L1472.54 1112.42C1471.8 1113.98 1470.84 1115.34 1469.72 1116.5C1468.6 1117.66 1467.26 1118.64 1465.74 1119.42C1464.24 1120.2 1462.56 1120.78 1460.72 1121.18C1458.88 1121.56 1456.9 1121.76 1454.78 1121.76C1452.2 1121.76 1449.88 1121.38 1447.8 1120.62C1445.72 1119.86 1443.96 1118.8 1442.5 1117.48C1441.04 1116.14 1439.94 1114.58 1439.16 1112.78C1438.38 1110.98 1438 1109.04 1438 1106.94C1438 1104.84 1438.4 1102.84 1439.22 1101.08C1440.02 1099.32 1441.2 1097.82 1442.72 1096.56C1444.24 1095.3 1446.14 1094.34 1448.38 1093.66C1450.62 1092.98 1453.18 1092.66 1456.06 1092.66H1471.86V1100.02H1457.58L1457.56 1100.06ZM1470.48 1091.1C1470.48 1087.98 1469.52 1085.56 1467.6 1083.82C1465.68 1082.08 1462.84 1081.22 1459.08 1081.22C1457.94 1081.22 1456.8 1081.32 1455.62 1081.54C1454.46 1081.74 1453.28 1082.06 1452.1 1082.48C1450.92 1082.9 1449.74 1083.42 1448.56 1084.02C1447.38 1084.64 1446.18 1085.34 1445 1086.16L1440.78 1079.52C1442.46 1078.5 1444.04 1077.62 1445.54 1076.84C1447.04 1076.06 1448.58 1075.44 1450.16 1074.92C1451.74 1074.4 1453.44 1074 1455.24 1073.74C1457.04 1073.48 1459.08 1073.34 1461.34 1073.34C1464.42 1073.34 1467.16 1073.72 1469.54 1074.48C1471.92 1075.24 1473.94 1076.34 1475.58 1077.78C1477.22 1079.22 1478.48 1080.96 1479.32 1083.04C1480.18 1085.1 1480.62 1087.44 1480.64 1090.04L1480.72 1121.38H1470.58L1470.5 1091.12L1470.48 1091.1Z" fill="#07283E"/>
<path d="M1489.7 1073.68H1520.76V1081.04H1489.7V1073.68ZM1506.66 1106.26C1506.66 1107.54 1506.78 1108.62 1507 1109.46C1507.22 1110.3 1507.56 1111 1508 1111.5C1508.44 1112 1508.98 1112.36 1509.62 1112.58C1510.24 1112.78 1510.96 1112.9 1511.78 1112.9C1512.86 1112.9 1513.98 1112.72 1515.12 1112.36C1516.28 1112 1517.54 1111.46 1518.96 1110.74L1521.56 1118.2C1520.64 1118.76 1519.68 1119.28 1518.7 1119.72C1517.72 1120.16 1516.74 1120.56 1515.76 1120.86C1514.78 1121.18 1513.78 1121.4 1512.8 1121.56C1511.82 1121.7 1510.8 1121.78 1509.8 1121.78C1508 1121.78 1506.3 1121.52 1504.68 1121.02C1503.06 1120.52 1501.64 1119.7 1500.42 1118.6C1499.2 1117.5 1498.22 1116.08 1497.5 1114.34C1496.78 1112.6 1496.42 1110.5 1496.42 1108.06V1062.36H1506.66V1106.26Z" fill="#07283E"/>
<path d="M1538.61 1054.46C1539.35 1054.76 1539.97 1055.18 1540.51 1055.72C1541.05 1056.26 1541.47 1056.9 1541.77 1057.62C1542.07 1058.34 1542.21 1059.16 1542.21 1060.02C1542.21 1060.88 1542.05 1061.64 1541.77 1062.38C1541.47 1063.12 1541.05 1063.74 1540.51 1064.28C1539.97 1064.82 1539.33 1065.24 1538.61 1065.56C1537.87 1065.88 1537.07 1066.04 1536.21 1066.04C1535.35 1066.04 1534.59 1065.88 1533.85 1065.56C1533.11 1065.24 1532.49 1064.82 1531.95 1064.28C1531.41 1063.74 1530.99 1063.1 1530.67 1062.38C1530.35 1061.64 1530.19 1060.86 1530.19 1060.02C1530.19 1059.18 1530.35 1058.36 1530.67 1057.62C1530.99 1056.88 1531.41 1056.26 1531.95 1055.72C1532.49 1055.18 1533.13 1054.76 1533.85 1054.46C1534.57 1054.16 1535.37 1054.02 1536.21 1054.02C1537.05 1054.02 1537.87 1054.18 1538.61 1054.46ZM1531.09 1073.68H1541.33V1121.34H1531.09V1073.68Z" fill="#07283E"/>
<path d="M1587.15 1075.06C1590.21 1076.22 1592.81 1077.88 1595.01 1080C1597.19 1082.12 1598.89 1084.66 1600.11 1087.64C1601.33 1090.6 1601.93 1093.88 1601.93 1097.48C1601.93 1101.08 1601.33 1104.36 1600.11 1107.34C1598.89 1110.32 1597.19 1112.86 1595.01 1115C1592.83 1117.12 1590.21 1118.78 1587.15 1119.96C1584.09 1121.14 1580.73 1121.74 1577.05 1121.74C1573.37 1121.74 1569.95 1121.14 1566.91 1119.96C1563.85 1118.78 1561.23 1117.12 1559.03 1115C1556.83 1112.88 1555.13 1110.32 1553.91 1107.34C1552.69 1104.36 1552.09 1101.08 1552.09 1097.48C1552.09 1093.88 1552.69 1090.62 1553.91 1087.64C1555.13 1084.68 1556.83 1082.14 1559.03 1080C1561.23 1077.88 1563.85 1076.22 1566.91 1075.06C1569.97 1073.9 1573.35 1073.3 1577.05 1073.3C1580.75 1073.3 1584.09 1073.88 1587.15 1075.06ZM1571.13 1082.84C1569.33 1083.62 1567.79 1084.72 1566.51 1086.12C1565.23 1087.52 1564.23 1089.2 1563.51 1091.14C1562.79 1093.08 1562.43 1095.22 1562.43 1097.56C1562.43 1099.9 1562.79 1102.1 1563.51 1104.06C1564.23 1106.04 1565.23 1107.72 1566.51 1109.1C1567.79 1110.5 1569.33 1111.58 1571.13 1112.36C1572.93 1113.14 1574.89 1113.52 1577.05 1113.52C1579.21 1113.52 1581.13 1113.14 1582.91 1112.36C1584.69 1111.58 1586.23 1110.5 1587.51 1109.1C1588.79 1107.7 1589.79 1106.02 1590.51 1104.06C1591.23 1102.08 1591.59 1099.92 1591.59 1097.56C1591.59 1095.2 1591.23 1093.08 1590.51 1091.14C1589.79 1089.2 1588.79 1087.52 1587.51 1086.12C1586.23 1084.72 1584.69 1083.62 1582.91 1082.84C1581.13 1082.06 1579.17 1081.68 1577.05 1081.68C1574.93 1081.68 1572.93 1082.06 1571.13 1082.84Z" fill="#07283E"/>
<path d="M1612.69 1073.68H1623.01V1121.34H1612.69V1073.68ZM1648.07 1094.42C1648.07 1092.56 1647.81 1090.9 1647.29 1089.42C1646.77 1087.94 1646.01 1086.68 1645.03 1085.64C1644.05 1084.6 1642.83 1083.82 1641.41 1083.28C1639.99 1082.74 1638.39 1082.48 1636.59 1082.48C1634.47 1082.52 1632.55 1082.92 1630.87 1083.72C1629.17 1084.52 1627.75 1085.6 1626.59 1086.98C1625.43 1088.36 1624.53 1089.98 1623.89 1091.86C1623.25 1093.74 1622.95 1095.76 1622.95 1097.94H1620.07C1620.07 1093.52 1620.55 1089.74 1621.51 1086.66C1622.47 1083.56 1623.83 1081.02 1625.61 1079.06C1627.39 1077.08 1629.55 1075.64 1632.07 1074.76C1634.59 1073.86 1637.45 1073.4 1640.63 1073.36C1643.41 1073.36 1645.91 1073.78 1648.11 1074.64C1650.31 1075.5 1652.17 1076.72 1653.69 1078.3C1655.21 1079.88 1656.39 1081.82 1657.19 1084.1C1657.99 1086.38 1658.41 1088.94 1658.41 1091.78V1121.4H1648.09V1094.46L1648.07 1094.42Z" fill="#07283E"/>
<path d="M1074.75 1920.98C1122.84 1904.88 1148.78 1852.84 1132.68 1804.74C1116.58 1756.64 1064.53 1730.7 1016.43 1746.81C968.335 1762.91 942.398 1814.95 958.5 1863.05C974.603 1911.15 1026.65 1937.09 1074.75 1920.98Z" fill="#FD4060"/>
<path d="M1024.21 1885.66H1024.11C1021.45 1885.62 1018.97 1884.34 1017.43 1882.2L994.253 1850.16C991.533 1846.42 992.373 1841.18 996.133 1838.46C999.873 1835.74 1005.11 1836.6 1007.83 1840.34L1024.39 1863.22L1083.53 1785.36C1086.33 1781.68 1091.59 1780.96 1095.27 1783.76C1098.95 1786.56 1099.67 1791.82 1096.87 1795.5L1030.89 1882.34C1029.31 1884.42 1026.83 1885.64 1024.21 1885.64V1885.66Z" fill="white"/>
<path d="M855.058 1452.84L832.358 1452.12L824.658 1430.76C822.998 1426.14 816.458 1426.14 814.778 1430.76L807.078 1452.12L784.378 1452.84C779.458 1453 777.438 1459.22 781.318 1462.24L799.258 1476.16L792.938 1497.96C791.578 1502.68 796.858 1506.52 800.918 1503.76L819.698 1491L838.478 1503.76C842.538 1506.52 847.838 1502.68 846.478 1497.96L840.158 1476.16L858.098 1462.24C861.978 1459.22 859.958 1453 855.038 1452.84H855.058Z" fill="#FD4060"/>
<path d="M969.198 1452.84L946.498 1452.12L938.798 1430.76C937.138 1426.14 930.598 1426.14 928.918 1430.76L921.218 1452.12L898.518 1452.84C893.598 1453 891.578 1459.22 895.458 1462.24L913.398 1476.16L907.078 1497.96C905.718 1502.68 910.998 1506.52 915.058 1503.76L933.838 1491L952.618 1503.76C956.678 1506.52 961.978 1502.68 960.618 1497.96L954.298 1476.16L972.238 1462.24C976.118 1459.22 974.098 1453 969.178 1452.84H969.198Z" fill="#FD4060"/>
<path d="M1083.34 1452.84L1060.64 1452.12L1052.94 1430.76C1051.28 1426.14 1044.74 1426.14 1043.06 1430.76L1035.36 1452.12L1012.66 1452.84C1007.74 1453 1005.72 1459.22 1009.6 1462.24L1027.54 1476.16L1021.22 1497.96C1019.86 1502.68 1025.14 1506.52 1029.22 1503.76L1048 1491L1066.78 1503.76C1070.84 1506.52 1076.14 1502.68 1074.78 1497.96L1068.46 1476.16L1086.4 1462.24C1090.28 1459.22 1088.26 1453 1083.34 1452.84Z" fill="#FD4060"/>
<path d="M1197.48 1452.84L1174.78 1452.12L1167.08 1430.76C1165.42 1426.14 1158.88 1426.14 1157.2 1430.76L1149.5 1452.12L1126.8 1452.84C1121.88 1453 1119.86 1459.22 1123.74 1462.24L1141.68 1476.16L1135.36 1497.96C1134 1502.68 1139.28 1506.52 1143.36 1503.76L1162.14 1491L1180.92 1503.76C1184.98 1506.52 1190.28 1502.68 1188.92 1497.96L1182.6 1476.16L1200.54 1462.24C1204.42 1459.22 1202.4 1453 1197.48 1452.84Z" fill="#FD4060"/>
<path d="M1311.62 1452.84L1288.92 1452.12L1281.22 1430.76C1279.56 1426.14 1273.02 1426.14 1271.34 1430.76L1263.64 1452.12L1240.94 1452.84C1236.02 1453 1234 1459.22 1237.88 1462.24L1255.82 1476.16L1249.5 1497.96C1248.14 1502.68 1253.42 1506.52 1257.5 1503.76L1276.28 1491L1295.06 1503.76C1299.12 1506.52 1304.42 1502.68 1303.04 1497.96L1296.72 1476.16L1314.66 1462.24C1318.54 1459.22 1316.52 1453 1311.6 1452.84H1311.62Z" fill="#FD4060"/>
<path d="M2071.12 1016.6L2079.44 1017.86C2112.2 1024.84 2133.12 1056.7 2126.46 1089.78C2124.64 1098.82 2120.4 1107.16 2115.08 1114.6L2155.12 1154.76C2161.48 1162.22 2151.88 1171.84 2144.38 1165.5L2104.24 1125.42C2099.02 1129.08 2093.52 1132.4 2087.48 1134.54C2052.72 1146.92 2014.98 1125.62 2007.54 1089.76L2006.26 1081.44C2006.38 1078.72 2006.08 1075.88 2006.26 1073.18C2008.18 1043.08 2033.18 1018.48 2063.14 1016.56H2071.1L2071.12 1016.6ZM2064.88 1031.72C2028.96 1033.62 2008.66 1074.48 2029.92 1103.96C2049.42 1130.98 2090.6 1128.76 2106.84 1099.64C2124.22 1068.5 2100.42 1029.84 2064.88 1031.7V1031.72Z" fill="#FD4060"/>
<path d="M395.438 720.48V806.06C395.438 839.86 422.838 867.28 456.658 867.28H705.597" stroke="#07283E" stroke-width="6" stroke-miterlimit="10"/>
<path d="M2117.64 741.381V806.081C2117.64 839.881 2090.24 867.301 2056.42 867.301H1803.48" stroke="#07283E" stroke-width="6" stroke-miterlimit="10"/>
<path d="M395.438 1473.56V1385.98C395.438 1352.18 422.838 1324.76 456.658 1324.76H709.597" stroke="#07283E" stroke-width="6" stroke-miterlimit="10"/>
<path d="M2117.64 1450.68V1385.98C2117.64 1352.18 2090.24 1324.76 2056.42 1324.76H1803.48" stroke="#07283E" stroke-width="6" stroke-miterlimit="10"/>
<path d="M2321.12 1655.76C2321.12 1543.38 2230.02 1452.28 2117.64 1452.28C2005.26 1452.28 1914.16 1543.38 1914.16 1655.76C1914.16 1768.14 2005.26 1859.24 2117.64 1859.24C2230.02 1859.24 2321.12 1768.14 2321.12 1655.76Z" fill="white" stroke="#07283E" stroke-width="6" stroke-miterlimit="10"/>
<path d="M442.056 1832.86H398.896C387.176 1830.28 379.896 1819.72 383.596 1807.78C385.696 1801 392.036 1795.5 399.176 1794.78C409.236 1793.76 430.516 1793.86 440.676 1794.76C445.416 1795.18 448.036 1799.26 448.496 1799.26H492.496V1765.38L488.576 1763.42C482.656 1776.6 469.516 1784.28 455.216 1785.26C414.316 1788.08 370.316 1783.18 329.096 1785.26C314.796 1784.28 301.656 1776.62 295.736 1763.42C287.936 1766.92 277.116 1766.88 268.556 1766.22C257.896 1765.4 251.536 1760.28 248.656 1749.98V1691.16C250.276 1686.38 252.116 1682.02 256.316 1678.94C258.636 1677.24 261.176 1676.84 263.136 1675.12C263.936 1661.18 262.096 1646.5 263.876 1632.72C269.916 1585.48 310.896 1548.64 358.236 1546.08C378.556 1544.98 405.776 1544.98 426.116 1546.08C472.256 1548.58 511.536 1583.06 519.716 1628.44C522.476 1643.74 520.436 1659.62 521.196 1675.14C523.156 1676.86 525.696 1677.26 528.016 1678.96C532.236 1682.04 534.696 1687.02 535.616 1692.08C534.256 1710.12 537.676 1731.44 535.616 1749.1C535.076 1753.76 532.216 1758.78 528.576 1761.66C526.196 1763.54 523.496 1764.28 521.196 1766.04L521.036 1807.9C519.256 1818.1 511.416 1826.1 501.196 1827.84H449.056C446.796 1829.9 445.276 1831.74 442.056 1832.88V1832.86ZM511.576 1674.9C511.036 1659.02 513.056 1642.8 509.716 1627.18C501.156 1587.06 465.896 1557.78 424.996 1555.56C405.376 1554.5 379.556 1554.56 359.916 1555.56C318.996 1557.62 283.416 1586.5 274.736 1626.72C271.316 1642.52 273.296 1658.82 272.776 1674.9H282.296C282.856 1659.22 280.776 1643.22 284.256 1627.84C292.256 1592.58 324.016 1567.06 359.916 1565.08C379.116 1564.02 404.636 1564.08 423.876 1565.08C461.176 1567 493.636 1593.66 500.656 1630.64C503.396 1645.06 501.476 1660.24 502.036 1674.9H511.556H511.576ZM329.936 1629.26C330.436 1632.5 329.556 1636.82 329.936 1640.18C335.176 1638.56 340.936 1637.14 346.456 1636.8C377.916 1634.8 412.236 1637.78 443.876 1637.54L454.396 1640.18V1629.26C454.396 1626.5 459.196 1621.1 461.596 1619.66C470.356 1614.42 481.916 1620.44 482.976 1630.38C483.936 1639.22 481.196 1655.2 483.116 1662.74C483.996 1666.24 489.996 1672.34 489.716 1677.16C491.176 1677.12 492.656 1676.28 492.556 1674.68C491.876 1660.52 493.936 1645.68 491.136 1631.78C484.676 1599.64 456.276 1576.6 423.836 1574.68C405.276 1573.58 380.216 1573.68 361.596 1574.64C332.016 1576.16 305.636 1594.36 295.736 1622.54C289.776 1639.54 292.356 1656.98 291.796 1674.68C291.676 1676.28 293.156 1677.12 294.636 1677.16C294.276 1672.44 300.716 1665.7 301.336 1662.3C303.676 1649.72 294.556 1621.5 312.556 1618.04C319.896 1616.64 328.796 1621.78 329.956 1629.26H329.936ZM310.876 1651.38C312.956 1649.08 317.636 1647.14 319.596 1645.26C320.516 1644.36 320.336 1643.84 320.436 1642.74C320.716 1639.9 320.856 1631.28 319.296 1629.26C316.436 1625.6 310.876 1628.32 310.876 1630.94V1651.38ZM473.456 1651.38V1630.94C473.456 1628.26 467.476 1625.38 464.796 1629.56C463.596 1631.42 463.596 1640.74 463.896 1643.3C463.996 1644.06 463.956 1644.3 464.496 1644.94C465.976 1646.7 471.636 1649.24 473.456 1651.38ZM345.516 1646.5C322.636 1648.46 302.996 1667.08 301.316 1690.28C299.936 1709.48 302.376 1730.3 301.356 1749.66C303.396 1765.5 315.156 1774.74 330.756 1775.74C370.996 1773.76 413.616 1778.28 453.576 1775.74C469.216 1774.74 480.836 1765.56 482.976 1749.66C481.816 1730.22 484.556 1708.96 482.976 1689.74C481.056 1666.44 460.856 1647.9 437.856 1646.32C407.876 1648.02 375.216 1643.94 345.536 1646.48L345.516 1646.5ZM268.156 1684.6C262.456 1685.24 259.496 1687.36 258.236 1693.16L258.436 1748.88C259.236 1752.2 261.816 1755.36 265.316 1756C272.016 1757.22 281.596 1755.46 288.616 1756C290.676 1755.54 291.576 1753.26 291.836 1751.38L291.696 1688.76C291.276 1687.7 290.796 1686.26 289.796 1685.6C287.116 1683.84 271.976 1684.16 268.156 1684.58V1684.6ZM497.976 1684.58C494.636 1685.06 492.956 1686.22 492.496 1689.74L492.636 1752.36C493.336 1754.3 493.976 1755.74 496.196 1756.1C499.516 1756.62 516.416 1756.6 519.456 1755.9C523.116 1755.06 525.496 1751.48 526.096 1747.98L525.896 1692.26C524.956 1688.96 522.996 1686.16 519.556 1685.16C515.596 1684 502.256 1683.98 497.996 1684.6L497.976 1684.58ZM511.576 1766.2H502.056V1801.76C502.056 1804.72 497.336 1808.32 494.436 1808.72C481.336 1810.5 464.496 1807.2 451.296 1808.74C450.476 1808.84 449.856 1808.8 449.356 1809.6V1818.28H500.656C502.556 1818.28 506.916 1815.1 508.236 1813.54C509.076 1812.54 511.576 1808.34 511.576 1807.36V1766.2ZM439.816 1804.3H399.176C398.716 1804.3 395.316 1806.5 394.716 1807.14C391.676 1810.42 391.296 1815.5 393.836 1819.16C394.716 1820.42 398.276 1823.36 399.736 1823.36H439.816V1804.32V1804.3Z" fill="#FD4060"/>
<path d="M347.736 1659.36C362.656 1657.34 365.836 1665.08 377.596 1668.46C387.336 1671.26 399.736 1671.16 409.276 1667.64C414.756 1665.62 418.776 1661.54 424.676 1660.06C446.196 1654.68 467.296 1675.38 472.056 1695.08C474.516 1705.28 474.456 1733.1 473.456 1744.08C472.456 1755.06 464.776 1763 454.556 1765.52C412.956 1766.6 370.956 1766.82 329.376 1765.4C319.996 1763.02 312.116 1754.98 310.956 1745.14C309.756 1734.82 309.956 1704.78 312.296 1695.06C316.016 1679.64 331.396 1661.56 347.756 1659.36H347.736ZM348.856 1668.88C333.796 1671.26 321.456 1689.9 320.396 1704.3C319.656 1714.2 319.376 1733.9 320.396 1743.54C321.096 1750.02 326.436 1755.58 332.996 1756.16H451.316C457.896 1755.58 463.216 1750 463.916 1743.54C464.956 1733.96 464.736 1713.02 463.836 1703.28C462.556 1689.22 452.256 1674.82 438.836 1670.02C427.036 1665.8 423.636 1672.04 414.216 1675.96C401.596 1681.24 384.056 1681.3 371.256 1676.46C362.916 1673.3 359.096 1667.26 348.836 1668.88H348.856Z" fill="#FD4060"/>
<path d="M348.303 1694.64C373.483 1690.62 374.263 1731.96 352.063 1732.62C331.083 1733.24 329.123 1697.72 348.303 1694.64ZM347.523 1705.36C340.103 1712.08 347.103 1728.08 355.463 1721.42C363.823 1714.76 355.183 1698.4 347.523 1705.36Z" fill="#FD4060"/>
<path d="M429.575 1694.64C454.695 1690.62 455.635 1731.96 433.335 1732.62C412.335 1733.24 410.475 1697.7 429.575 1694.64ZM436.815 1705.36C429.555 1698.78 421.135 1713.72 428.315 1720.84C436.435 1728.9 444.655 1712.46 436.815 1705.36Z" fill="#FD4060"/>
<path d="M381.931 1727.66C386.551 1726.9 387.791 1734.98 395.091 1731.9C398.011 1730.66 401.171 1724.46 405.311 1729.26C410.351 1735.12 399.111 1741.54 394.071 1742.06C389.031 1742.58 380.791 1739.78 378.491 1734.78C377.091 1731.72 378.491 1728.22 381.931 1727.66Z" fill="#FD4060"/>
<path d="M439.908 302.86H350.988C346.68 302.86 343.188 306.348 343.188 310.65C343.188 314.953 346.68 318.44 350.988 318.44H439.908C444.215 318.44 447.708 314.953 447.708 310.65C447.708 306.348 444.215 302.86 439.908 302.86Z" fill="#F5F5F5"/>
<path d="M1803.5 548.76L709.58 548.76V510.66C709.58 477.56 736.44 450.7 769.54 450.7L1743.54 450.7C1776.64 450.7 1803.5 477.56 1803.5 510.66V548.76Z" fill="#07283E" stroke="#07283E" stroke-width="6" stroke-miterlimit="10"/>
<path d="M780.183 518.68C789.285 518.68 796.663 511.301 796.663 502.2C796.663 493.098 789.285 485.72 780.183 485.72C771.081 485.72 763.703 493.098 763.703 502.2C763.703 511.301 771.081 518.68 780.183 518.68Z" fill="#F4F8FB"/>
<path d="M828.183 518.68C837.285 518.68 844.663 511.301 844.663 502.2C844.663 493.098 837.285 485.72 828.183 485.72C819.081 485.72 811.703 493.098 811.703 502.2C811.703 511.301 819.081 518.68 828.183 518.68Z" fill="#F4F8FB"/>
<path d="M876.183 518.68C885.285 518.68 892.663 511.301 892.663 502.2C892.663 493.098 885.285 485.72 876.183 485.72C867.081 485.72 859.703 493.098 859.703 502.2C859.703 511.301 867.081 518.68 876.183 518.68Z" fill="#F4F8FB"/>
<path d="M394.597 425.22L394.785 425.248L403.071 426.503C435.278 433.379 455.845 464.705 449.294 497.242C447.509 506.106 443.345 514.316 438.081 521.678L437.589 522.366L438.187 522.966L478.194 563.094C483.69 569.586 475.438 577.928 468.869 572.42L428.762 532.372L428.168 531.779L427.48 532.261C422.293 535.898 416.878 539.16 410.961 541.257L410.959 541.258C376.775 553.432 339.661 532.488 332.337 497.232L331.077 489.039C331.132 487.67 331.088 486.277 331.052 484.936C331.014 483.545 330.986 482.203 331.072 480.906V480.903C332.959 451.322 357.537 427.122 386.99 425.22H394.597ZM431.508 507.787C449.265 475.97 424.959 436.46 388.622 438.361L387.675 438.411V438.44C351.578 441.042 331.355 482.326 352.903 512.205H352.904C372.828 539.812 414.908 537.552 431.508 507.787Z" fill="#FD4060" stroke="#FD4060" stroke-width="2"/>
<path d="M2121.89 1540.44C2143.41 1542.42 2161.05 1561.16 2162.49 1582.56C2164.19 1607.88 2161.17 1635.06 2162.49 1660.58C2156.85 1716.36 2077.89 1716.28 2072.25 1660.58C2073.57 1635.06 2070.55 1607.88 2072.25 1582.56C2073.69 1561.16 2091.33 1542.42 2112.85 1540.44C2115.23 1540.22 2119.49 1540.22 2121.87 1540.44H2121.89ZM2114.13 1558.58C2101.55 1560.02 2091.29 1570.92 2090.31 1583.46C2088.39 1607.96 2091.79 1634.92 2090.31 1659.68C2094.23 1692.82 2140.51 1692.74 2144.47 1659.68C2142.99 1634.92 2146.39 1607.96 2144.47 1583.46C2143.27 1568.22 2129.31 1556.86 2114.13 1558.58Z" fill="#FD4060"/>
<path d="M2001.94 1641.4V1583.7C2005.16 1573.26 2019.14 1574.2 2020 1585.7C2021.3 1603.16 2018.96 1622.2 2020 1639.82C2019.04 1650.88 2004.82 1651.62 2001.94 1641.38V1641.4Z" fill="#FD4060"/>
<path d="M2126.39 1738.32V1753.2H2155.03C2156.31 1753.2 2159.29 1755.1 2160.21 1756.14C2165.45 1762.02 2161.13 1771.46 2153.25 1771.26L2079.47 1771.04C2072.53 1769.82 2069.89 1760.92 2074.75 1755.9C2075.61 1755 2078.59 1753.22 2079.73 1753.22H2108.37V1738.34C2072.61 1734.36 2042.95 1706.38 2037.25 1670.82C2036.61 1666.88 2035.83 1660.86 2036.23 1656.98C2037.37 1645.88 2052.97 1646.04 2054.21 1656.58C2055.67 1668.88 2055.59 1675.98 2061.69 1687.42C2086.11 1733.16 2153.09 1731.24 2174.75 1684.1C2179.65 1673.44 2179.09 1667.12 2180.65 1656.2C2181.91 1647.4 2194.39 1645.96 2197.75 1653.74C2200.05 1659.04 2197.29 1673.12 2195.73 1678.94C2187.23 1710.78 2159.19 1734.7 2126.41 1738.34L2126.39 1738.32Z" fill="#FD4060"/>
<path d="M2222.35 1576.62C2228.17 1575.84 2232.35 1579.56 2232.85 1585.28C2234.37 1602.92 2231.71 1622.8 2232.79 1640.68C2231.53 1651.22 2215.81 1651.56 2214.79 1639.84C2213.27 1622.2 2215.93 1602.32 2214.85 1584.44C2215.33 1580.46 2218.35 1577.16 2222.35 1576.62Z" fill="#FD4060"/>
<path d="M2043.78 1594.64C2049.6 1593.86 2053.78 1597.58 2054.28 1603.3C2054.62 1607.2 2054.76 1621.7 2053.7 1624.84C2050.74 1633.5 2037.12 1632.34 2036.22 1621.82C2035.88 1617.92 2035.74 1603.42 2036.8 1600.28C2037.8 1597.34 2040.76 1595.04 2043.78 1594.64Z" fill="#FD4060"/>
<path d="M2188.07 1594.64C2193.89 1593.86 2198.07 1597.58 2198.57 1603.3C2198.91 1607.2 2199.05 1621.7 2197.99 1624.84C2195.03 1633.5 2181.41 1632.34 2180.51 1621.82C2180.17 1617.92 2180.03 1603.42 2181.09 1600.28C2182.09 1597.34 2185.05 1595.04 2188.07 1594.64Z" fill="#FD4060"/>
</g>
<defs>
<clipPath id="clip0_2_3954">
<rect width="2162.82" height="1726.46" fill="white" transform="translate(174 264)"/>
</clipPath>
</defs>
</svg>
